<svg width="817" height="190" viewBox="0 0 817 190" fill="none" xmlns="http://www.w3.org/2000/svg">
<g filter="url(#filter0_d_1410_689)">
<path d="M97.2819 78H89.9719V22.1H101.152L119.212 69.4L137.272 22.1H148.452V78H141.142V29.84L122.652 78H115.772L97.2819 29.84V78ZM163.932 52.63H173.822C185.002 52.63 190.592 56.7867 190.592 65.1C190.592 73.7 185.002 78 173.822 78H156.622V35H163.932V52.63ZM173.392 58.22H163.932V72.41H173.392C176.373 72.41 178.695 71.894 180.358 70.862C182.021 69.7727 182.852 67.852 182.852 65.1C182.852 60.5133 179.699 58.22 173.392 58.22ZM202.202 78H194.892V35H202.202V78ZM241.315 58.22V53.06H249.055C251.979 53.06 254.272 52.4867 255.935 51.34C257.655 50.1933 258.515 48.4733 258.515 46.18C258.515 44.0587 257.626 42.31 255.849 40.934C254.072 39.558 251.377 38.87 247.765 38.87C243.924 38.87 241.086 39.8447 239.251 41.794C237.474 43.686 236.585 45.7213 236.585 47.9H229.275C229.275 44.4027 230.766 41.1633 233.747 38.182C236.728 35.2007 241.401 33.71 247.765 33.71C254.072 33.71 258.658 34.8567 261.525 37.15C264.392 39.386 265.825 42.1093 265.825 45.32C265.825 47.728 265.051 49.7347 263.503 51.34C262.012 52.888 260.522 53.8627 259.031 54.264L256.795 54.78V55.21C257.082 55.2673 257.454 55.3533 257.913 55.468C258.429 55.5253 259.289 55.7833 260.493 56.242C261.754 56.7007 262.844 57.274 263.761 57.962C264.736 58.5927 265.596 59.5387 266.341 60.8C267.144 62.0613 267.545 63.4947 267.545 65.1C267.545 69.3427 265.796 72.7827 262.299 75.42C258.859 78 254.014 79.29 247.765 79.29C241.344 79.29 236.499 77.8853 233.231 75.076C230.02 72.2667 228.415 68.5113 228.415 63.81H235.725C235.725 67.0207 236.7 69.5433 238.649 71.378C240.598 73.2127 243.637 74.13 247.765 74.13C251.95 74.13 254.989 73.2987 256.881 71.636C258.83 69.916 259.805 67.7373 259.805 65.1C259.805 60.5133 256.222 58.22 249.055 58.22H241.315ZM278.755 90.9H271.445V72.41H273.165C276.319 72.41 278.669 70.2887 280.217 66.046C281.823 61.746 282.625 54.694 282.625 44.89V35H314.015V72.41H321.755V90.9H314.445V78H278.755V90.9ZM289.505 45.75C289.505 60.2553 287.499 69.142 283.485 72.41H306.705V40.59H289.505V45.75ZM364.772 58.22H332.092C332.321 63.552 333.669 67.5367 336.134 70.174C338.599 72.8113 341.695 74.13 345.422 74.13C348.346 74.13 350.84 73.356 352.904 71.808C355.025 70.26 356.401 68.024 357.032 65.1H364.342C363.425 69.3427 361.332 72.7827 358.064 75.42C354.853 78 350.639 79.29 345.422 79.29C338.657 79.29 333.439 77.14 329.77 72.84C326.158 68.54 324.352 63.0933 324.352 56.5C324.352 49.9067 326.129 44.46 329.684 40.16C333.296 35.86 338.399 33.71 344.992 33.71C351.585 33.71 356.516 35.774 359.784 39.902C363.109 44.03 364.772 48.9893 364.772 54.78V58.22ZM353.592 42.482C351.356 40.074 348.489 38.87 344.992 38.87C341.495 38.87 338.599 40.0453 336.306 42.396C334.07 44.7467 332.723 48.3013 332.264 53.06H357.032C357.032 48.3587 355.885 44.8327 353.592 42.482ZM382.62 43.256C380.154 46.18 378.922 50.5947 378.922 56.5C378.922 62.4053 380.154 66.82 382.62 69.744C385.085 72.668 388.296 74.13 392.252 74.13C395.634 74.13 398.3 73.1553 400.25 71.206C402.199 69.1993 403.403 66.4473 403.862 62.95H411.602C411.372 67.5367 409.566 71.4067 406.184 74.56C402.801 77.7133 398.157 79.29 392.252 79.29C385.486 79.29 380.269 77.14 376.6 72.84C372.988 68.54 371.182 63.0933 371.182 56.5C371.182 49.9067 372.988 44.46 376.6 40.16C380.269 35.86 385.486 33.71 392.252 33.71C398.157 33.71 402.801 35.2867 406.184 38.44C409.566 41.5933 411.372 45.4633 411.602 50.05H403.862C403.403 46.5527 402.199 43.8293 400.25 41.88C398.3 39.8733 395.634 38.87 392.252 38.87C388.296 38.87 385.085 40.332 382.62 43.256ZM426.182 52.63H437.792C448.972 52.63 454.562 56.7867 454.562 65.1C454.562 73.7 448.972 78 437.792 78H418.872V35H426.182V52.63ZM437.362 58.22H426.182V72.41H437.362C440.343 72.41 442.665 71.894 444.328 70.862C445.99 69.7727 446.822 67.852 446.822 65.1C446.822 60.5133 443.668 58.22 437.362 58.22ZM462.47 69.83H469.78V79.29C469.78 85.31 467.057 88.32 461.61 88.32H460.75V84.88C462.814 84.88 464.248 84.3927 465.05 83.418C465.91 82.5007 466.34 81.1247 466.34 79.29V78H462.47V69.83ZM526.832 35H534.142V78H526.832V57.79C526.545 58.1913 526.086 58.6787 525.456 59.252C524.882 59.8253 523.506 60.5993 521.328 61.574C519.206 62.4913 516.884 62.95 514.362 62.95C509.66 62.95 505.905 61.6887 503.096 59.166C500.286 56.6433 498.882 52.888 498.882 47.9V35H506.192V46.18C506.192 50.0787 506.994 52.9167 508.6 54.694C510.262 56.4713 512.9 57.36 516.512 57.36C519.608 57.36 522.102 56.8153 523.994 55.726C525.886 54.5793 526.832 52.974 526.832 50.91V35ZM563.778 78H556.468V40.59H540.558V35H579.688V40.59H563.778V78ZM587.703 72.84C584.091 68.54 582.285 63.0933 582.285 56.5C582.285 49.9067 584.091 44.46 587.703 40.16C591.372 35.86 596.59 33.71 603.355 33.71C610.12 33.71 615.309 35.86 618.921 40.16C622.59 44.46 624.425 49.9067 624.425 56.5C624.425 63.0933 622.59 68.54 618.921 72.84C615.309 77.14 610.12 79.29 603.355 79.29C596.59 79.29 591.372 77.14 587.703 72.84ZM593.723 43.256C591.258 46.18 590.025 50.5947 590.025 56.5C590.025 62.4053 591.258 66.82 593.723 69.744C596.188 72.668 599.399 74.13 603.355 74.13C607.311 74.13 610.522 72.668 612.987 69.744C615.452 66.82 616.685 62.4053 616.685 56.5C616.685 50.5947 615.452 46.18 612.987 43.256C610.522 40.332 607.311 38.87 603.355 38.87C599.399 38.87 596.188 40.332 593.723 43.256ZM651.948 40.59C648.164 40.59 644.982 42.0807 642.402 45.062C639.88 48.0433 638.618 52.1427 638.618 57.36C638.618 62.864 639.851 67.0493 642.316 69.916C644.839 72.7253 648.05 74.13 651.948 74.13C655.847 74.13 659.029 72.7253 661.494 69.916C664.017 67.0493 665.278 62.864 665.278 57.36C665.278 51.856 664.017 47.6993 661.494 44.89C659.029 42.0233 655.847 40.59 651.948 40.59ZM670.438 17.8C670.438 19.1187 670.352 20.294 670.18 21.326C670.008 22.3007 669.607 23.4473 668.976 24.766C668.403 26.0847 667.342 27.1167 665.794 27.862C664.304 28.6073 662.412 28.98 660.118 28.98H652.808C642.718 28.98 637.271 35.2867 636.468 47.9H636.898C636.956 47.556 637.07 47.126 637.242 46.61C637.472 46.0367 637.988 45.0333 638.79 43.6C639.593 42.1667 640.539 40.9053 641.628 39.816C642.718 38.6693 644.237 37.666 646.186 36.806C648.193 35.8887 650.4 35.43 652.808 35.43C659.459 35.43 664.476 37.5513 667.858 41.794C671.298 46.0367 673.018 51.2253 673.018 57.36C673.018 63.552 671.184 68.7693 667.514 73.012C663.902 77.1973 658.714 79.29 651.948 79.29C644.896 79.29 639.622 77.0253 636.124 72.496C632.627 67.9667 630.878 61.7747 630.878 53.92C630.878 32.7067 639.048 22.1 655.388 22.1H660.118C662.182 22.1 663.702 21.8133 664.676 21.24C665.651 20.6093 666.138 19.4627 666.138 17.8H670.438ZM687.642 52.63H697.532C708.712 52.63 714.302 56.7867 714.302 65.1C714.302 73.7 708.712 78 697.532 78H680.332V35H687.642V52.63ZM697.102 58.22H687.642V72.41H697.102C700.083 72.41 702.405 71.894 704.068 70.862C705.73 69.7727 706.562 67.852 706.562 65.1C706.562 60.5133 703.408 58.22 697.102 58.22ZM725.912 78H718.602V35H725.912V78ZM41.1014 160H33.7914V122.59H17.8814V117H57.0114V122.59H41.1014V160ZM70.8016 134.63H80.6916C91.8716 134.63 97.4616 138.787 97.4616 147.1C97.4616 155.7 91.8716 160 80.6916 160H63.4916V117H70.8016V134.63ZM80.2616 140.22H70.8016V154.41H80.2616C83.243 154.41 85.565 153.894 87.2276 152.862C88.8903 151.773 89.7216 149.852 89.7216 147.1C89.7216 142.513 86.5683 140.22 80.2616 140.22ZM109.072 160H101.762V117H109.072V160ZM156.785 140.22H143.885V154.41H156.785C159.766 154.41 162.088 153.894 163.751 152.862C165.414 151.773 166.245 149.852 166.245 147.1C166.245 142.513 163.092 140.22 156.785 140.22ZM143.885 135.06H155.495C161.802 135.06 164.955 132.91 164.955 128.61C164.955 124.597 162.088 122.59 156.355 122.59H143.885V135.06ZM136.575 160V117H156.785C161.314 117 165.012 117.831 167.879 119.494C170.803 121.099 172.265 123.708 172.265 127.32C172.265 129.728 171.577 131.735 170.201 133.34C168.825 134.888 167.449 135.863 166.073 136.264L164.095 136.78V137.21C164.382 137.267 164.726 137.353 165.127 137.468C165.586 137.525 166.388 137.783 167.535 138.242C168.682 138.701 169.685 139.274 170.545 139.962C171.405 140.65 172.179 141.682 172.867 143.058C173.612 144.377 173.985 145.867 173.985 147.53C173.985 151.945 172.437 155.127 169.341 157.076C166.245 159.025 162.203 160 157.215 160H136.575ZM191.463 125.256C188.998 128.18 187.765 132.595 187.765 138.5C187.765 144.405 188.998 148.82 191.463 151.744C193.928 154.668 197.139 156.13 201.095 156.13C204.478 156.13 207.144 155.155 209.093 153.206C211.042 151.199 212.246 148.447 212.705 144.95H220.445C220.216 149.537 218.41 153.407 215.027 156.56C211.644 159.713 207 161.29 201.095 161.29C194.33 161.29 189.112 159.14 185.443 154.84C181.831 150.54 180.025 145.093 180.025 138.5C180.025 131.907 181.831 126.46 185.443 122.16C189.112 117.86 194.33 115.71 201.095 115.71C207 115.71 211.644 117.287 215.027 120.44C218.41 123.593 220.216 127.463 220.445 132.05H212.705C212.246 128.553 211.042 125.829 209.093 123.88C207.144 121.873 204.478 120.87 201.095 120.87C197.139 120.87 193.928 122.332 191.463 125.256ZM267.275 140.22H234.595C234.824 145.552 236.171 149.537 238.637 152.174C241.102 154.811 244.198 156.13 247.925 156.13C250.849 156.13 253.343 155.356 255.407 153.808C257.528 152.26 258.904 150.024 259.535 147.1H266.845C265.927 151.343 263.835 154.783 260.567 157.42C257.356 160 253.142 161.29 247.925 161.29C241.159 161.29 235.942 159.14 232.273 154.84C228.661 150.54 226.855 145.093 226.855 138.5C226.855 131.907 228.632 126.46 232.187 122.16C235.799 117.86 240.901 115.71 247.495 115.71C254.088 115.71 259.019 117.774 262.287 121.902C265.612 126.03 267.275 130.989 267.275 136.78V140.22ZM256.095 124.482C253.859 122.074 250.992 120.87 247.495 120.87C243.997 120.87 241.102 122.045 238.809 124.396C236.573 126.747 235.225 130.301 234.767 135.06H259.535C259.535 130.359 258.388 126.833 256.095 124.482ZM281.854 160H274.544V117H305.074V122.59H281.854V160ZM310.661 172.9H303.351V154.41H305.071C308.224 154.41 310.575 152.289 312.123 148.046C313.728 143.746 314.531 136.694 314.531 126.89V117H345.921V154.41H353.661V172.9H346.351V160H310.661V172.9ZM321.411 127.75C321.411 142.255 319.404 151.142 315.391 154.41H338.611V122.59H321.411V127.75ZM387.691 152.69C387.577 152.919 387.405 153.235 387.175 153.636C386.946 154.037 386.373 154.725 385.455 155.7C384.595 156.675 383.621 157.535 382.531 158.28C381.499 159.025 380.095 159.713 378.317 160.344C376.54 160.975 374.648 161.29 372.641 161.29C367.883 161.29 364.185 160.086 361.547 157.678C358.91 155.27 357.591 152.174 357.591 148.39C357.591 144.377 359.111 141.166 362.149 138.758C365.188 136.293 370.119 135.06 376.941 135.06C379.292 135.06 381.213 134.888 382.703 134.544C384.251 134.143 385.369 133.598 386.057 132.91C386.745 132.165 387.175 131.448 387.347 130.76C387.577 130.072 387.691 129.212 387.691 128.18C387.691 123.307 384.108 120.87 376.941 120.87C369.488 120.87 365.761 123.88 365.761 129.9H358.451C358.451 125.141 360.114 121.587 363.439 119.236C366.765 116.885 371.265 115.71 376.941 115.71C388.981 115.71 395.001 120.44 395.001 129.9V149.68C395.001 150.769 395.03 151.572 395.087 152.088C395.145 152.547 395.288 153.063 395.517 153.636C395.804 154.209 396.234 154.582 396.807 154.754C397.438 154.926 398.269 154.955 399.301 154.84V160C397.983 160.287 396.693 160.43 395.431 160.43C392.909 160.43 390.988 160 389.669 159.14C388.351 158.28 387.691 156.56 387.691 153.98V152.69ZM387.691 138.93V136.006C387.634 136.121 387.519 136.264 387.347 136.436C387.233 136.608 386.889 136.895 386.315 137.296C385.742 137.64 385.054 137.955 384.251 138.242C383.506 138.529 382.388 138.787 380.897 139.016C379.464 139.245 377.859 139.36 376.081 139.36C373.215 139.36 370.692 139.991 368.513 141.252C366.392 142.513 365.331 144.606 365.331 147.53C365.331 150.11 366.134 152.203 367.739 153.808C369.402 155.356 371.609 156.13 374.361 156.13C377.916 156.13 381.012 154.754 383.649 152.002C386.344 149.193 387.691 144.835 387.691 138.93ZM444.868 122.59C441.084 122.59 437.902 124.081 435.322 127.062C432.799 130.043 431.538 134.143 431.538 139.36C431.538 144.864 432.771 149.049 435.236 151.916C437.759 154.725 440.969 156.13 444.868 156.13C448.767 156.13 451.949 154.725 454.414 151.916C456.937 149.049 458.198 144.864 458.198 139.36C458.198 133.856 456.937 129.699 454.414 126.89C451.949 124.023 448.767 122.59 444.868 122.59ZM463.358 99.8C463.358 101.119 463.272 102.294 463.1 103.326C462.928 104.301 462.527 105.447 461.896 106.766C461.323 108.085 460.262 109.117 458.714 109.862C457.223 110.607 455.331 110.98 453.038 110.98H445.728C435.637 110.98 430.191 117.287 429.388 129.9H429.818C429.875 129.556 429.99 129.126 430.162 128.61C430.391 128.037 430.907 127.033 431.71 125.6C432.513 124.167 433.459 122.905 434.548 121.816C435.637 120.669 437.157 119.666 439.106 118.806C441.113 117.889 443.32 117.43 445.728 117.43C452.379 117.43 457.395 119.551 460.778 123.794C464.218 128.037 465.938 133.225 465.938 139.36C465.938 145.552 464.103 150.769 460.434 155.012C456.822 159.197 451.633 161.29 444.868 161.29C437.816 161.29 432.541 159.025 429.044 154.496C425.547 149.967 423.798 143.775 423.798 135.92C423.798 114.707 431.968 104.1 448.308 104.1H453.038C455.102 104.1 456.621 103.813 457.596 103.24C458.571 102.609 459.058 101.463 459.058 99.8H463.358ZM480.561 134.63H490.451C501.631 134.63 507.221 138.787 507.221 147.1C507.221 155.7 501.631 160 490.451 160H473.251V117H480.561V134.63ZM490.021 140.22H480.561V154.41H490.021C493.003 154.41 495.325 153.894 496.987 152.862C498.65 151.773 499.481 149.852 499.481 147.1C499.481 142.513 496.328 140.22 490.021 140.22ZM518.831 160H511.521V117H518.831V160ZM566.098 117V160H558.788V122.59H541.588V132.05C541.588 142.313 540.527 149.623 538.406 153.98C536.342 158.28 532.816 160.43 527.828 160.43L524.388 160V153.98C524.789 154.095 525.276 154.152 525.85 154.152C527.398 154.152 528.659 153.894 529.634 153.378C530.608 152.862 531.497 151.83 532.3 150.282C533.16 148.734 533.762 146.412 534.106 143.316C534.507 140.163 534.708 136.121 534.708 131.19V117H566.098ZM600.978 160H593.668V117H624.198V122.59H600.978V160ZM631.786 154.84C628.174 150.54 626.368 145.093 626.368 138.5C626.368 131.907 628.174 126.46 631.786 122.16C635.456 117.86 640.673 115.71 647.438 115.71C654.204 115.71 659.392 117.86 663.004 122.16C666.674 126.46 668.508 131.907 668.508 138.5C668.508 145.093 666.674 150.54 663.004 154.84C659.392 159.14 654.204 161.29 647.438 161.29C640.673 161.29 635.456 159.14 631.786 154.84ZM637.806 125.256C635.341 128.18 634.108 132.595 634.108 138.5C634.108 144.405 635.341 148.82 637.806 151.744C640.272 154.668 643.482 156.13 647.438 156.13C651.394 156.13 654.605 154.668 657.07 151.744C659.536 148.82 660.768 144.405 660.768 138.5C660.768 132.595 659.536 128.18 657.07 125.256C654.605 122.332 651.394 120.87 647.438 120.87C643.482 120.87 640.272 122.332 637.806 125.256ZM694.298 160H686.988V122.59H671.078V117H710.208V122.59H694.298V160ZM718.223 154.84C714.611 150.54 712.805 145.093 712.805 138.5C712.805 131.907 714.611 126.46 718.223 122.16C721.892 117.86 727.11 115.71 733.875 115.71C740.64 115.71 745.829 117.86 749.441 122.16C753.11 126.46 754.945 131.907 754.945 138.5C754.945 145.093 753.11 150.54 749.441 154.84C745.829 159.14 740.64 161.29 733.875 161.29C727.11 161.29 721.892 159.14 718.223 154.84ZM724.243 125.256C721.778 128.18 720.545 132.595 720.545 138.5C720.545 144.405 721.778 148.82 724.243 151.744C726.708 154.668 729.919 156.13 733.875 156.13C737.831 156.13 741.042 154.668 743.507 151.744C745.972 148.82 747.205 144.405 747.205 138.5C747.205 132.595 745.972 128.18 743.507 125.256C741.042 122.332 737.831 120.87 733.875 120.87C729.919 120.87 726.708 122.332 724.243 125.256ZM782.468 140.22H769.568V154.41H782.468C785.45 154.41 787.772 153.894 789.434 152.862C791.097 151.773 791.928 149.852 791.928 147.1C791.928 142.513 788.775 140.22 782.468 140.22ZM769.568 135.06H781.178C787.485 135.06 790.638 132.91 790.638 128.61C790.638 124.597 787.772 122.59 782.038 122.59H769.568V135.06ZM762.258 160V117H782.468C786.998 117 790.696 117.831 793.562 119.494C796.486 121.099 797.948 123.708 797.948 127.32C797.948 129.728 797.26 131.735 795.884 133.34C794.508 134.888 793.132 135.863 791.756 136.264L789.778 136.78V137.21C790.065 137.267 790.409 137.353 790.81 137.468C791.269 137.525 792.072 137.783 793.218 138.242C794.365 138.701 795.368 139.274 796.228 139.962C797.088 140.65 797.862 141.682 798.55 143.058C799.296 144.377 799.668 145.867 799.668 147.53C799.668 151.945 798.12 155.127 795.024 157.076C791.928 159.025 787.886 160 782.898 160H762.258Z" fill="#FEFF8B"/>
<path d="M97.2819 78V80H99.2819V78H97.2819ZM89.9719 78H87.9719V80H89.9719V78ZM89.9719 22.1V20.1H87.9719V22.1H89.9719ZM101.152 22.1L103.02 21.3866L102.529 20.1H101.152V22.1ZM119.212 69.4L117.343 70.1134L119.212 75.0069L121.08 70.1134L119.212 69.4ZM137.272 22.1V20.1H135.895L135.403 21.3866L137.272 22.1ZM148.452 22.1H150.452V20.1H148.452V22.1ZM148.452 78V80H150.452V78H148.452ZM141.142 78H139.142V80H141.142V78ZM141.142 29.84H143.142L139.275 29.1232L141.142 29.84ZM122.652 78V80H124.026L124.519 78.7168L122.652 78ZM115.772 78L113.905 78.7168L114.397 80H115.772V78ZM97.2819 29.84L99.149 29.1232L95.2819 29.84H97.2819ZM97.2819 76H89.9719V80H97.2819V76ZM91.9719 78V22.1H87.9719V78H91.9719ZM89.9719 24.1H101.152V20.1H89.9719V24.1ZM99.2835 22.8134L117.343 70.1134L121.08 68.6866L103.02 21.3866L99.2835 22.8134ZM121.08 70.1134L139.14 22.8134L135.403 21.3866L117.343 68.6866L121.08 70.1134ZM137.272 24.1H148.452V20.1H137.272V24.1ZM146.452 22.1V78H150.452V22.1H146.452ZM148.452 76H141.142V80H148.452V76ZM143.142 78V29.84H139.142V78H143.142ZM139.275 29.1232L120.785 77.2832L124.519 78.7168L143.009 30.5568L139.275 29.1232ZM122.652 76H115.772V80H122.652V76ZM117.639 77.2832L99.149 29.1232L95.4148 30.5568L113.905 78.7168L117.639 77.2832ZM95.2819 29.84V78H99.2819V29.84H95.2819ZM163.932 52.63H161.932V54.63H163.932V52.63ZM156.622 78H154.622V80H156.622V78ZM156.622 35V33H154.622V35H156.622ZM163.932 35H165.932V33H163.932V35ZM163.932 58.22V56.22H161.932V58.22H163.932ZM163.932 72.41H161.932V74.41H163.932V72.41ZM180.358 70.862L181.413 72.5613L181.433 72.5484L181.454 72.5349L180.358 70.862ZM202.202 78V80H204.202V78H202.202ZM194.892 78H192.892V80H194.892V78ZM194.892 35V33H192.892V35H194.892ZM202.202 35H204.202V33H202.202V35ZM163.932 54.63H173.822V50.63H163.932V54.63ZM173.822 54.63C179.222 54.63 182.909 55.6442 185.206 57.3524C187.392 58.978 188.592 61.4378 188.592 65.1H192.592C192.592 60.4489 190.997 56.6736 187.593 54.1426C184.3 51.6941 179.602 50.63 173.822 50.63V54.63ZM188.592 65.1C188.592 68.9307 187.374 71.5021 185.18 73.1898C182.887 74.9539 179.211 76 173.822 76V80C179.612 80 184.322 78.8961 187.619 76.3602C191.015 73.7479 192.592 69.8693 192.592 65.1H188.592ZM173.822 76H156.622V80H173.822V76ZM158.622 78V35H154.622V78H158.622ZM156.622 37H163.932V33H156.622V37ZM161.932 35V52.63H165.932V35H161.932ZM173.392 56.22H163.932V60.22H173.392V56.22ZM161.932 58.22V72.41H165.932V58.22H161.932ZM163.932 74.41H173.392V70.41H163.932V74.41ZM173.392 74.41C176.565 74.41 179.309 73.8672 181.413 72.5613L179.303 69.1627C178.082 69.9208 176.181 70.41 173.392 70.41V74.41ZM181.454 72.5349C183.883 70.9434 184.852 68.2421 184.852 65.1H180.852C180.852 67.4619 180.158 68.6019 179.262 69.1891L181.454 72.5349ZM184.852 65.1C184.852 62.2952 183.853 59.9152 181.663 58.3225C179.592 56.816 176.728 56.22 173.392 56.22V60.22C176.362 60.22 178.229 60.7707 179.311 61.5575C180.274 62.2582 180.852 63.3182 180.852 65.1H184.852ZM202.202 76H194.892V80H202.202V76ZM196.892 78V35H192.892V78H196.892ZM194.892 37H202.202V33H194.892V37ZM200.202 35V78H204.202V35H200.202ZM241.315 58.22H239.315V60.22H241.315V58.22ZM241.315 53.06V51.06H239.315V53.06H241.315ZM255.935 51.34L254.826 49.6759L254.813 49.6846L254.8 49.6936L255.935 51.34ZM255.849 40.934L257.073 39.3526L257.073 39.3526L255.849 40.934ZM239.251 41.794L237.795 40.4233L237.793 40.4246L239.251 41.794ZM236.585 47.9V49.9H238.585V47.9H236.585ZM229.275 47.9H227.275V49.9H229.275V47.9ZM261.525 37.15L260.276 38.7117L260.285 38.7194L260.295 38.727L261.525 37.15ZM263.503 51.34L262.063 49.9517L262.062 49.9527L263.503 51.34ZM259.031 54.264L259.481 56.2128L259.516 56.2046L259.551 56.1952L259.031 54.264ZM256.795 54.78L256.345 52.8312L254.795 53.189V54.78H256.795ZM256.795 55.21H254.795V56.8496L256.403 57.1712L256.795 55.21ZM257.913 55.468L257.428 57.4083L257.559 57.4409L257.692 57.4558L257.913 55.468ZM260.493 56.242L259.781 58.111L259.795 58.1164L259.81 58.1216L260.493 56.242ZM263.761 57.962L262.561 59.562L262.617 59.6035L262.675 59.6411L263.761 57.962ZM266.341 60.8L264.619 61.8175L264.636 61.8459L264.654 61.8738L266.341 60.8ZM262.299 75.42L263.499 77.02L263.503 77.0169L262.299 75.42ZM233.231 75.076L231.914 76.5812L231.921 76.5869L231.927 76.5926L233.231 75.076ZM228.415 63.81V61.81H226.415V63.81H228.415ZM235.725 63.81H237.725V61.81H235.725V63.81ZM238.649 71.378L240.02 69.9216L240.02 69.9216L238.649 71.378ZM256.881 71.636L258.201 73.1383L258.204 73.1357L256.881 71.636ZM243.315 58.22V53.06H239.315V58.22H243.315ZM241.315 55.06H249.055V51.06H241.315V55.06ZM249.055 55.06C252.211 55.06 254.955 54.4453 257.071 52.9864L254.8 49.6936C253.59 50.528 251.747 51.06 249.055 51.06V55.06ZM257.045 53.0041C259.389 51.4412 260.515 49.0559 260.515 46.18H256.515C256.515 47.8907 255.921 48.9455 254.826 49.6759L257.045 53.0041ZM260.515 46.18C260.515 43.3984 259.306 41.0812 257.073 39.3526L254.625 42.5154C255.947 43.5388 256.515 44.7189 256.515 46.18H260.515ZM257.073 39.3526C254.789 37.5843 251.571 36.87 247.765 36.87V40.87C251.183 40.87 253.354 41.5317 254.625 42.5154L257.073 39.3526ZM247.765 36.87C243.616 36.87 240.147 37.9241 237.795 40.4233L240.708 43.1647C242.025 41.7652 244.232 40.87 247.765 40.87V36.87ZM237.793 40.4246C235.739 42.612 234.585 45.1177 234.585 47.9H238.585C238.585 46.325 239.209 44.76 240.709 43.1633L237.793 40.4246ZM236.585 45.9H229.275V49.9H236.585V45.9ZM231.275 47.9C231.275 45.0393 232.473 42.2849 235.161 39.5962L232.333 36.7678C229.059 40.0418 227.275 43.7661 227.275 47.9H231.275ZM235.161 39.5962C237.614 37.1436 241.665 35.71 247.765 35.71V31.71C241.137 31.71 235.843 33.2577 232.333 36.7678L235.161 39.5962ZM247.765 35.71C253.913 35.71 257.94 36.8435 260.276 38.7117L262.775 35.5883C259.376 32.8698 254.231 31.71 247.765 31.71V35.71ZM260.295 38.727C262.749 40.641 263.825 42.8126 263.825 45.32H267.825C267.825 41.406 266.035 38.131 262.755 35.573L260.295 38.727ZM263.825 45.32C263.825 47.2555 263.222 48.7506 262.063 49.9517L264.943 52.7283C266.881 50.7187 267.825 48.2005 267.825 45.32H263.825ZM262.062 49.9527C260.729 51.3372 259.54 52.0558 258.511 52.3328L259.551 56.1952C261.504 55.6695 263.296 54.4388 264.944 52.7273L262.062 49.9527ZM258.581 52.3152L256.345 52.8312L257.245 56.7288L259.481 56.2128L258.581 52.3152ZM254.795 54.78V55.21H258.795V54.78H254.795ZM256.403 57.1712C256.646 57.2197 256.984 57.2973 257.428 57.4083L258.398 53.5277C257.925 53.4094 257.518 53.315 257.187 53.2488L256.403 57.1712ZM257.692 57.4558C257.926 57.4818 258.57 57.6497 259.781 58.111L261.205 54.373C260.008 53.917 258.932 53.5689 258.134 53.4802L257.692 57.4558ZM259.81 58.1216C260.917 58.5241 261.825 59.0102 262.561 59.562L264.961 56.362C263.862 55.5378 262.592 54.8772 261.177 54.3624L259.81 58.1216ZM262.675 59.6411C263.33 60.0652 263.991 60.7549 264.619 61.8175L268.063 59.7825C267.2 58.3225 266.142 57.1201 264.848 56.2829L262.675 59.6411ZM264.654 61.8738C265.237 62.7903 265.545 63.8458 265.545 65.1H269.545C269.545 63.1436 269.05 61.3323 268.028 59.7262L264.654 61.8738ZM265.545 65.1C265.545 68.6915 264.11 71.5493 261.095 73.8231L263.503 77.0169C267.483 74.016 269.545 69.9938 269.545 65.1H265.545ZM261.099 73.82C258.131 76.0462 253.77 77.29 247.765 77.29V81.29C254.258 81.29 259.587 79.9538 263.499 77.02L261.099 73.82ZM247.765 77.29C241.595 77.29 237.299 75.9352 234.535 73.5594L231.927 76.5926C235.7 79.8355 241.093 81.29 247.765 81.29V77.29ZM234.548 73.5708C231.819 71.1827 230.415 68.0006 230.415 63.81H226.415C226.415 69.022 228.222 73.3506 231.914 76.5812L234.548 73.5708ZM228.415 65.81H235.725V61.81H228.415V65.81ZM233.725 63.81C233.725 67.4533 234.848 70.5474 237.278 72.8344L240.02 69.9216C238.551 68.5393 237.725 66.5881 237.725 63.81H233.725ZM237.278 72.8344C239.756 75.1663 243.395 76.13 247.765 76.13V72.13C243.879 72.13 241.441 71.2591 240.02 69.9216L237.278 72.8344ZM247.765 76.13C252.138 76.13 255.769 75.2755 258.201 73.1383L255.561 70.1337C254.209 71.3218 251.763 72.13 247.765 72.13V76.13ZM258.204 73.1357C260.591 71.0298 261.805 68.3016 261.805 65.1H257.805C257.805 67.173 257.07 68.8022 255.558 70.1363L258.204 73.1357ZM261.805 65.1C261.805 62.1884 260.613 59.8028 258.196 58.2555C255.93 56.8056 252.788 56.22 249.055 56.22V60.22C252.489 60.22 254.722 60.7811 256.04 61.6245C257.205 62.3705 257.805 63.4249 257.805 65.1H261.805ZM249.055 56.22H241.315V60.22H249.055V56.22ZM278.755 90.9V92.9H280.755V90.9H278.755ZM271.445 90.9H269.445V92.9H271.445V90.9ZM271.445 72.41V70.41H269.445V72.41H271.445ZM280.217 66.046L278.344 65.3465L278.341 65.3535L278.339 65.3605L280.217 66.046ZM282.625 35V33H280.625V35H282.625ZM314.015 35H316.015V33H314.015V35ZM314.015 72.41H312.015V74.41H314.015V72.41ZM321.755 72.41H323.755V70.41H321.755V72.41ZM321.755 90.9V92.9H323.755V90.9H321.755ZM314.445 90.9H312.445V92.9H314.445V90.9ZM314.445 78H316.445V76H314.445V78ZM278.755 78V76H276.755V78H278.755ZM283.485 72.41L282.223 70.8591L277.862 74.41H283.485V72.41ZM306.705 72.41V74.41H308.705V72.41H306.705ZM306.705 40.59H308.705V38.59H306.705V40.59ZM289.505 40.59V38.59H287.505V40.59H289.505ZM278.755 88.9H271.445V92.9H278.755V88.9ZM273.445 90.9V72.41H269.445V90.9H273.445ZM271.445 74.41H273.165V70.41H271.445V74.41ZM273.165 74.41C275.239 74.41 277.092 73.6946 278.633 72.3038C280.132 70.9514 281.255 69.0368 282.096 66.7315L278.339 65.3605C277.632 67.2978 276.806 68.5652 275.953 69.3342C275.144 70.0648 274.245 70.41 273.165 70.41V74.41ZM282.091 66.7455C283.831 62.086 284.625 54.724 284.625 44.89H280.625C280.625 54.664 279.815 61.406 278.344 65.3465L282.091 66.7455ZM284.625 44.89V35H280.625V44.89H284.625ZM282.625 37H314.015V33H282.625V37ZM312.015 35V72.41H316.015V35H312.015ZM314.015 74.41H321.755V70.41H314.015V74.41ZM319.755 72.41V90.9H323.755V72.41H319.755ZM321.755 88.9H314.445V92.9H321.755V88.9ZM316.445 90.9V78H312.445V90.9H316.445ZM314.445 76H278.755V80H314.445V76ZM276.755 78V90.9H280.755V78H276.755ZM287.505 45.75C287.505 52.9306 287.007 58.6137 286.049 62.8535C285.078 67.1567 283.703 69.6534 282.223 70.8591L284.748 73.9609C287.281 71.8986 288.916 68.318 289.951 63.7345C291.001 59.0876 291.505 53.0747 291.505 45.75H287.505ZM283.485 74.41H306.705V70.41H283.485V74.41ZM308.705 72.41V40.59H304.705V72.41H308.705ZM306.705 38.59H289.505V42.59H306.705V38.59ZM287.505 40.59V45.75H291.505V40.59H287.505ZM364.772 58.22V60.22H366.772V58.22H364.772ZM332.092 58.22V56.22H330.004L330.094 58.3059L332.092 58.22ZM336.134 70.174L334.673 71.5398L334.673 71.5398L336.134 70.174ZM352.904 71.808L351.725 70.1924L351.715 70.2001L351.704 70.208L352.904 71.808ZM357.032 65.1V63.1H355.418L355.077 64.6783L357.032 65.1ZM364.342 65.1L366.297 65.5227L366.821 63.1H364.342V65.1ZM358.064 75.42L359.317 76.979L359.32 76.9764L358.064 75.42ZM329.77 72.84L328.239 74.1264L328.244 74.1323L328.249 74.1382L329.77 72.84ZM329.684 40.16L328.153 38.8736L328.148 38.8796L328.143 38.8857L329.684 40.16ZM359.784 39.902L358.216 41.1434L358.221 41.1501L358.227 41.1567L359.784 39.902ZM353.592 42.482L352.127 43.8429L352.143 43.861L352.161 43.8786L353.592 42.482ZM336.306 42.396L334.875 40.9993L334.866 41.0084L334.857 41.0176L336.306 42.396ZM332.264 53.06L330.273 52.8681L330.062 55.06H332.264V53.06ZM357.032 53.06V55.06H359.032V53.06H357.032ZM364.772 56.22H332.092V60.22H364.772V56.22ZM330.094 58.3059C330.334 63.8932 331.757 68.4199 334.673 71.5398L337.595 68.8082C335.581 66.6534 334.309 63.2108 334.09 58.1341L330.094 58.3059ZM334.673 71.5398C337.53 74.5962 341.162 76.13 345.422 76.13V72.13C342.229 72.13 339.669 71.0265 337.595 68.8082L334.673 71.5398ZM345.422 76.13C348.719 76.13 351.649 75.2497 354.104 73.408L351.704 70.208C350.032 71.4623 347.974 72.13 345.422 72.13V76.13ZM354.083 73.4236C356.656 71.546 358.268 68.8541 358.987 65.5217L355.077 64.6783C354.535 67.1939 353.395 68.974 351.725 70.1924L354.083 73.4236ZM357.032 67.1H364.342V63.1H357.032V67.1ZM362.387 64.6773C361.563 68.4896 359.708 71.5235 356.808 73.8636L359.32 76.9764C362.957 74.0418 365.287 70.1957 366.297 65.5227L362.387 64.6773ZM356.811 73.861C354.042 76.0866 350.308 77.29 345.422 77.29V81.29C350.971 81.29 355.665 79.9134 359.317 76.979L356.811 73.861ZM345.422 77.29C339.116 77.29 334.506 75.3084 331.292 71.5418L328.249 74.1382C332.373 78.9716 338.198 81.29 345.422 81.29V77.29ZM331.302 71.5536C328.043 67.6748 326.352 62.7088 326.352 56.5H322.352C322.352 63.4778 324.273 69.4052 328.239 74.1264L331.302 71.5536ZM326.352 56.5C326.352 50.2834 328.019 45.313 331.226 41.4343L328.143 38.8857C324.24 43.607 322.352 49.53 322.352 56.5H326.352ZM331.216 41.4464C334.38 37.6794 338.876 35.71 344.992 35.71V31.71C337.922 31.71 332.212 34.0406 328.153 38.8736L331.216 41.4464ZM344.992 35.71C351.144 35.71 355.421 37.6132 358.216 41.1434L361.352 38.6606C357.611 33.9348 352.027 31.71 344.992 31.71V35.71ZM358.227 41.1567C361.239 44.8956 362.772 49.4008 362.772 54.78H366.772C366.772 48.5779 364.98 43.1643 361.342 38.6473L358.227 41.1567ZM362.772 54.78V58.22H366.772V54.78H362.772ZM355.058 41.1211C352.417 38.2771 349.005 36.87 344.992 36.87V40.87C347.973 40.87 350.295 41.8709 352.127 43.8429L355.058 41.1211ZM344.992 36.87C340.995 36.87 337.571 38.2359 334.875 40.9993L337.738 43.7926C339.628 41.8548 341.995 40.87 344.992 40.87V36.87ZM334.857 41.0176C332.197 43.8139 330.755 47.8672 330.273 52.8681L334.255 53.2519C334.69 48.7354 335.943 45.6794 337.755 43.7744L334.857 41.0176ZM332.264 55.06H357.032V51.06H332.264V55.06ZM359.032 53.06C359.032 48.0626 357.814 43.9449 355.024 41.0854L352.161 43.8786C353.957 45.7204 355.032 48.6547 355.032 53.06H359.032ZM382.62 43.256L384.149 44.5452L384.149 44.5452L382.62 43.256ZM382.62 69.744L384.149 68.4548L384.149 68.4548L382.62 69.744ZM400.25 71.206L401.664 72.6202L401.674 72.61L401.684 72.5996L400.25 71.206ZM403.862 62.95V60.95H402.107L401.879 62.6899L403.862 62.95ZM411.602 62.95L413.599 63.0499L413.704 60.95H411.602V62.95ZM406.184 74.56L404.82 73.0971L404.82 73.0971L406.184 74.56ZM376.6 72.84L375.068 74.1264L375.073 74.1323L375.078 74.1382L376.6 72.84ZM376.6 40.16L375.078 38.8618L375.073 38.8677L375.068 38.8736L376.6 40.16ZM406.184 38.44L404.82 39.9029L404.82 39.9029L406.184 38.44ZM411.602 50.05V52.05H413.704L413.599 49.9501L411.602 50.05ZM403.862 50.05L401.879 50.3101L402.107 52.05H403.862V50.05ZM400.25 41.88L398.815 43.2736L398.825 43.284L398.836 43.2942L400.25 41.88ZM381.091 41.9668C378.194 45.4025 376.922 50.3676 376.922 56.5H380.922C380.922 50.8218 382.115 46.9575 384.149 44.5452L381.091 41.9668ZM376.922 56.5C376.922 62.6324 378.194 67.5975 381.091 71.0332L384.149 68.4548C382.115 66.0425 380.922 62.1782 380.922 56.5H376.922ZM381.091 71.0332C383.951 74.4254 387.73 76.13 392.252 76.13V72.13C388.862 72.13 386.219 70.9106 384.149 68.4548L381.091 71.0332ZM392.252 76.13C396.037 76.13 399.258 75.0263 401.664 72.6202L398.836 69.7918C397.343 71.2843 395.232 72.13 392.252 72.13V76.13ZM401.684 72.5996C404.004 70.2114 405.345 67.0218 405.845 63.2101L401.879 62.6899C401.461 65.8729 400.394 68.1873 398.815 69.8124L401.684 72.5996ZM403.862 64.95H411.602V60.95H403.862V64.95ZM409.604 62.8501C409.401 66.9133 407.825 70.2956 404.82 73.0971L407.548 76.0229C411.308 72.5177 413.344 68.1601 413.599 63.0499L409.604 62.8501ZM404.82 73.0971C401.902 75.8174 397.796 77.29 392.252 77.29V81.29C398.518 81.29 403.7 79.6092 407.548 76.0229L404.82 73.0971ZM392.252 77.29C385.945 77.29 381.335 75.3084 378.121 71.5418L375.078 74.1382C379.203 78.9716 385.028 81.29 392.252 81.29V77.29ZM378.131 71.5536C374.873 67.6748 373.182 62.7088 373.182 56.5H369.182C369.182 63.4778 371.103 69.4052 375.068 74.1264L378.131 71.5536ZM373.182 56.5C373.182 50.2912 374.873 45.3252 378.131 41.4464L375.068 38.8736C371.103 43.5948 369.182 49.5222 369.182 56.5H373.182ZM378.121 41.4582C381.335 37.6916 385.945 35.71 392.252 35.71V31.71C385.028 31.71 379.203 34.0284 375.078 38.8618L378.121 41.4582ZM392.252 35.71C397.796 35.71 401.902 37.1826 404.82 39.9029L407.548 36.9771C403.7 33.3908 398.518 31.71 392.252 31.71V35.71ZM404.82 39.9029C407.825 42.7044 409.401 46.0867 409.604 50.1499L413.599 49.9501C413.344 44.8399 411.308 40.4823 407.548 36.9771L404.82 39.9029ZM411.602 48.05H403.862V52.05H411.602V48.05ZM405.845 49.7899C405.345 45.9791 404.003 42.8045 401.664 40.4658L398.836 43.2942C400.396 44.8542 401.461 47.1263 401.879 50.3101L405.845 49.7899ZM401.684 40.4864C399.282 38.013 396.054 36.87 392.252 36.87V40.87C395.215 40.87 397.319 41.7337 398.815 43.2736L401.684 40.4864ZM392.252 36.87C387.73 36.87 383.951 38.5746 381.091 41.9668L384.149 44.5452C386.219 42.0894 388.862 40.87 392.252 40.87V36.87ZM426.182 52.63H424.182V54.63H426.182V52.63ZM418.872 78H416.872V80H418.872V78ZM418.872 35V33H416.872V35H418.872ZM426.182 35H428.182V33H426.182V35ZM426.182 58.22V56.22H424.182V58.22H426.182ZM426.182 72.41H424.182V74.41H426.182V72.41ZM444.328 70.862L445.382 72.5613L445.403 72.5484L445.424 72.5349L444.328 70.862ZM426.182 54.63H437.792V50.63H426.182V54.63ZM437.792 54.63C443.192 54.63 446.878 55.6442 449.176 57.3524C451.362 58.978 452.562 61.4378 452.562 65.1H456.562C456.562 60.4489 454.966 56.6736 451.562 54.1426C448.27 51.6941 443.571 50.63 437.792 50.63V54.63ZM452.562 65.1C452.562 68.9307 451.344 71.5021 449.15 73.1898C446.856 74.9539 443.181 76 437.792 76V80C443.582 80 448.292 78.8961 451.588 76.3602C454.985 73.7479 456.562 69.8693 456.562 65.1H452.562ZM437.792 76H418.872V80H437.792V76ZM420.872 78V35H416.872V78H420.872ZM418.872 37H426.182V33H418.872V37ZM424.182 35V52.63H428.182V35H424.182ZM437.362 56.22H426.182V60.22H437.362V56.22ZM424.182 58.22V72.41H428.182V58.22H424.182ZM426.182 74.41H437.362V70.41H426.182V74.41ZM437.362 74.41C440.535 74.41 443.278 73.8672 445.382 72.5613L443.273 69.1627C442.051 69.9208 440.151 70.41 437.362 70.41V74.41ZM445.424 72.5349C447.853 70.9434 448.822 68.2421 448.822 65.1H444.822C444.822 67.4619 444.128 68.6019 443.231 69.1891L445.424 72.5349ZM448.822 65.1C448.822 62.2952 447.823 59.9152 445.633 58.3225C443.561 56.816 440.698 56.22 437.362 56.22V60.22C440.332 60.22 442.198 60.7707 443.28 61.5575C444.244 62.2582 444.822 63.3182 444.822 65.1H448.822ZM462.47 69.83V67.83H460.47V69.83H462.47ZM469.78 69.83H471.78V67.83H469.78V69.83ZM460.75 88.32H458.75V90.32H460.75V88.32ZM460.75 84.88V82.88H458.75V84.88H460.75ZM465.05 83.418L463.591 82.0501L463.547 82.097L463.506 82.1466L465.05 83.418ZM466.34 78H468.34V76H466.34V78ZM462.47 78H460.47V80H462.47V78ZM462.47 71.83H469.78V67.83H462.47V71.83ZM467.78 69.83V79.29H471.78V69.83H467.78ZM467.78 79.29C467.78 82.0384 467.154 83.7264 466.255 84.7207C465.389 85.6769 463.971 86.32 461.61 86.32V90.32C464.696 90.32 467.363 89.4581 469.221 87.4043C471.044 85.3886 471.78 82.5616 471.78 79.29H467.78ZM461.61 86.32H460.75V90.32H461.61V86.32ZM462.75 88.32V84.88H458.75V88.32H462.75ZM460.75 86.88C463.039 86.88 465.225 86.3517 466.594 84.6894L463.506 82.1466C463.27 82.4337 462.59 82.88 460.75 82.88V86.88ZM466.509 84.7859C467.848 83.3582 468.34 81.402 468.34 79.29H464.34C464.34 80.8474 463.973 81.6431 463.591 82.0501L466.509 84.7859ZM468.34 79.29V78H464.34V79.29H468.34ZM466.34 76H462.47V80H466.34V76ZM464.47 78V69.83H460.47V78H464.47ZM526.832 35V33H524.832V35H526.832ZM534.142 35H536.142V33H534.142V35ZM534.142 78V80H536.142V78H534.142ZM526.832 78H524.832V80H526.832V78ZM526.832 57.79H528.832V51.5491L525.204 56.6275L526.832 57.79ZM525.456 59.252L524.11 57.7721L524.075 57.8041L524.042 57.8378L525.456 59.252ZM521.328 61.574L522.122 63.4097L522.133 63.4047L522.144 63.3996L521.328 61.574ZM498.882 35V33H496.882V35H498.882ZM506.192 35H508.192V33H506.192V35ZM508.6 54.694L507.116 56.0346L507.127 56.0475L507.139 56.0603L508.6 54.694ZM523.994 55.726L524.992 57.4592L525.011 57.448L525.03 57.4364L523.994 55.726ZM526.832 37H534.142V33H526.832V37ZM532.142 35V78H536.142V35H532.142ZM534.142 76H526.832V80H534.142V76ZM528.832 78V57.79H524.832V78H528.832ZM525.204 56.6275C525.039 56.8595 524.7 57.236 524.11 57.7721L526.801 60.7319C527.473 60.1213 528.052 59.5232 528.459 58.9525L525.204 56.6275ZM524.042 57.8378C523.954 57.9251 523.662 58.1542 523.013 58.5193C522.398 58.8654 521.57 59.2748 520.511 59.7484L522.144 63.3996C523.265 62.8986 524.213 62.4336 524.974 62.0057C525.701 61.5968 526.384 61.1522 526.87 60.6662L524.042 57.8378ZM520.534 59.7383C518.685 60.5377 516.637 60.95 514.362 60.95V64.95C517.132 64.95 519.727 64.445 522.122 63.4097L520.534 59.7383ZM514.362 60.95C510.028 60.95 506.79 59.7956 504.432 57.6779L501.76 60.6541C505.02 63.5817 509.293 64.95 514.362 64.95V60.95ZM504.432 57.6779C502.17 55.6464 500.882 52.5125 500.882 47.9H496.882C496.882 53.2635 498.403 57.6403 501.76 60.6541L504.432 57.6779ZM500.882 47.9V35H496.882V47.9H500.882ZM498.882 37H506.192V33H498.882V37ZM504.192 35V46.18H508.192V35H504.192ZM504.192 46.18C504.192 50.2812 505.024 53.7187 507.116 56.0346L510.084 53.3534C508.965 52.1146 508.192 49.8761 508.192 46.18H504.192ZM507.139 56.0603C509.331 58.4034 512.615 59.36 516.512 59.36V55.36C513.185 55.36 511.194 54.5393 510.06 53.3277L507.139 56.0603ZM516.512 59.36C519.82 59.36 522.695 58.7814 524.992 57.4592L522.996 53.9928C521.508 54.8492 519.396 55.36 516.512 55.36V59.36ZM525.03 57.4364C527.468 55.9588 528.832 53.7321 528.832 50.91H524.832C524.832 52.2159 524.303 53.1999 522.957 54.0156L525.03 57.4364ZM528.832 50.91V35H524.832V50.91H528.832ZM563.778 78V80H565.778V78H563.778ZM556.468 78H554.468V80H556.468V78ZM556.468 40.59H558.468V38.59H556.468V40.59ZM540.558 40.59H538.558V42.59H540.558V40.59ZM540.558 35V33H538.558V35H540.558ZM579.688 35H581.688V33H579.688V35ZM579.688 40.59V42.59H581.688V40.59H579.688ZM563.778 40.59V38.59H561.778V40.59H563.778ZM563.778 76H556.468V80H563.778V76ZM558.468 78V40.59H554.468V78H558.468ZM556.468 38.59H540.558V42.59H556.468V38.59ZM542.558 40.59V35H538.558V40.59H542.558ZM540.558 37H579.688V33H540.558V37ZM577.688 35V40.59H581.688V35H577.688ZM579.688 38.59H563.778V42.59H579.688V38.59ZM561.778 40.59V78H565.778V40.59H561.778ZM587.703 72.84L586.172 74.1264L586.177 74.1323L586.182 74.1382L587.703 72.84ZM587.703 40.16L586.182 38.8618L586.177 38.8677L586.172 38.8736L587.703 40.16ZM618.921 40.16L617.39 41.4464L617.395 41.4523L617.4 41.4582L618.921 40.16ZM618.921 72.84L617.4 71.5418L617.395 71.5477L617.39 71.5536L618.921 72.84ZM593.723 43.256L595.252 44.5452L595.252 44.5452L593.723 43.256ZM593.723 69.744L595.252 68.4548L595.252 68.4548L593.723 69.744ZM612.987 69.744L614.516 71.0332L614.516 71.0332L612.987 69.744ZM612.987 43.256L614.516 41.9668L614.516 41.9668L612.987 43.256ZM589.234 71.5536C585.976 67.6748 584.285 62.7088 584.285 56.5H580.285C580.285 63.4778 582.206 69.4052 586.172 74.1264L589.234 71.5536ZM584.285 56.5C584.285 50.2912 585.976 45.3252 589.234 41.4464L586.172 38.8736C582.206 43.5948 580.285 49.5222 580.285 56.5H584.285ZM589.224 41.4582C592.438 37.6916 597.048 35.71 603.355 35.71V31.71C596.131 31.71 590.306 34.0284 586.182 38.8618L589.224 41.4582ZM603.355 35.71C609.663 35.71 614.236 37.6916 617.39 41.4464L620.452 38.8736C616.382 34.0284 610.578 31.71 603.355 31.71V35.71ZM617.4 41.4582C620.71 45.3374 622.425 50.299 622.425 56.5H626.425C626.425 49.5143 624.471 43.5826 620.442 38.8618L617.4 41.4582ZM622.425 56.5C622.425 62.701 620.71 67.6626 617.4 71.5418L620.442 74.1382C624.471 69.4174 626.425 63.4857 626.425 56.5H622.425ZM617.39 71.5536C614.236 75.3084 609.663 77.29 603.355 77.29V81.29C610.578 81.29 616.382 78.9716 620.452 74.1264L617.39 71.5536ZM603.355 77.29C597.048 77.29 592.438 75.3084 589.224 71.5418L586.182 74.1382C590.306 78.9716 596.131 81.29 603.355 81.29V77.29ZM592.194 41.9668C589.297 45.4025 588.025 50.3676 588.025 56.5H592.025C592.025 50.8218 593.218 46.9575 595.252 44.5452L592.194 41.9668ZM588.025 56.5C588.025 62.6324 589.297 67.5975 592.194 71.0332L595.252 68.4548C593.218 66.0425 592.025 62.1782 592.025 56.5H588.025ZM592.194 71.0332C595.054 74.4254 598.833 76.13 603.355 76.13V72.13C599.965 72.13 597.323 70.9106 595.252 68.4548L592.194 71.0332ZM603.355 76.13C607.877 76.13 611.656 74.4254 614.516 71.0332L611.458 68.4548C609.387 70.9106 606.745 72.13 603.355 72.13V76.13ZM614.516 71.0332C617.413 67.5975 618.685 62.6324 618.685 56.5H614.685C614.685 62.1782 613.492 66.0425 611.458 68.4548L614.516 71.0332ZM618.685 56.5C618.685 50.3676 617.413 45.4025 614.516 41.9668L611.458 44.5452C613.492 46.9575 614.685 50.8218 614.685 56.5H618.685ZM614.516 41.9668C611.656 38.5746 607.877 36.87 603.355 36.87V40.87C606.745 40.87 609.387 42.0894 611.458 44.5452L614.516 41.9668ZM603.355 36.87C598.833 36.87 595.054 38.5746 592.194 41.9668L595.252 44.5452C597.323 42.0894 599.965 40.87 603.355 40.87V36.87ZM642.402 45.062L640.89 43.7532L640.883 43.7616L640.876 43.7701L642.402 45.062ZM642.316 69.916L640.8 71.2201L640.814 71.2363L640.828 71.2523L642.316 69.916ZM661.494 69.916L659.993 68.5947L659.991 68.5968L661.494 69.916ZM661.494 44.89L659.978 46.1941L659.992 46.2103L660.006 46.2262L661.494 44.89ZM670.438 17.8H672.438V15.8H670.438V17.8ZM670.18 21.326L672.15 21.6736L672.152 21.6642L672.153 21.6548L670.18 21.326ZM668.976 24.766L667.172 23.9031L667.157 23.9355L667.142 23.9685L668.976 24.766ZM665.794 27.862L664.927 26.06L664.913 26.0665L664.9 26.0731L665.794 27.862ZM636.468 47.9L634.472 47.773L634.337 49.9H636.468V47.9ZM636.898 47.9V49.9H638.593L638.871 48.2288L636.898 47.9ZM637.242 46.61L635.385 45.8672L635.364 45.9218L635.345 45.9775L637.242 46.61ZM638.79 43.6L640.535 44.5772L640.535 44.5772L638.79 43.6ZM641.628 39.816L643.043 41.2302L643.061 41.2121L643.078 41.1935L641.628 39.816ZM646.186 36.806L646.994 38.6358L647.006 38.6305L647.018 38.6249L646.186 36.806ZM667.858 41.794L666.295 43.0408L666.3 43.0472L666.305 43.0536L667.858 41.794ZM667.514 73.012L666.002 71.7037L666 71.7053L667.514 73.012ZM636.124 72.496L637.707 71.2737L637.707 71.2737L636.124 72.496ZM664.676 21.24L665.69 22.9639L665.727 22.9423L665.763 22.9191L664.676 21.24ZM666.138 17.8V15.8H664.138V17.8H666.138ZM651.948 38.59C647.557 38.59 643.832 40.3539 640.89 43.7532L643.915 46.3708C646.133 43.8074 648.772 42.59 651.948 42.59V38.59ZM640.876 43.7701C637.958 47.2184 636.618 51.8298 636.618 57.36H640.618C640.618 52.4556 641.802 48.8683 643.929 46.3539L640.876 43.7701ZM636.618 57.36C636.618 63.1292 637.907 67.8562 640.8 71.2201L643.833 68.6119C641.795 66.2424 640.618 62.5988 640.618 57.36H636.618ZM640.828 71.2523C643.744 74.4994 647.503 76.13 651.948 76.13V72.13C648.596 72.13 645.934 70.9512 643.804 68.5797L640.828 71.2523ZM651.948 76.13C656.394 76.13 660.134 74.498 662.998 71.2352L659.991 68.5968C657.924 70.9526 655.3 72.13 651.948 72.13V76.13ZM662.996 71.2373C665.956 67.873 667.278 63.1389 667.278 57.36H663.278C663.278 62.5891 662.078 66.2257 659.993 68.5947L662.996 71.2373ZM667.278 57.36C667.278 51.5848 665.958 46.8673 662.982 43.5537L660.006 46.2262C662.076 48.5314 663.278 52.1272 663.278 57.36H667.278ZM663.011 43.5859C660.152 40.2619 656.409 38.59 651.948 38.59V42.59C655.285 42.59 657.906 43.7847 659.978 46.1941L663.011 43.5859ZM668.438 17.8C668.438 19.0355 668.357 20.0976 668.208 20.9972L672.153 21.6548C672.347 20.4904 672.438 19.2018 672.438 17.8H668.438ZM668.211 20.9784C668.081 21.7117 667.758 22.678 667.172 23.9031L670.781 25.6289C671.456 24.2167 671.935 22.8897 672.15 21.6736L668.211 20.9784ZM667.142 23.9685C666.796 24.765 666.131 25.4802 664.927 26.06L666.662 29.664C668.554 28.7531 670.01 27.4043 670.81 25.5635L667.142 23.9685ZM664.9 26.0731C663.771 26.6375 662.212 26.98 660.118 26.98V30.98C662.612 30.98 664.836 30.5772 666.689 29.6509L664.9 26.0731ZM660.118 26.98H652.808V30.98H660.118V26.98ZM652.808 26.98C647.316 26.98 642.825 28.7173 639.642 32.4028C636.519 36.018 634.888 41.244 634.472 47.773L638.464 48.027C638.851 41.9426 640.345 37.7087 642.669 35.0172C644.933 32.396 648.21 30.98 652.808 30.98V26.98ZM636.468 49.9H636.898V45.9H636.468V49.9ZM638.871 48.2288C638.905 48.0281 638.985 47.7076 639.14 47.2425L635.345 45.9775C635.156 46.5444 635.007 47.0839 634.926 47.5712L638.871 48.2288ZM639.099 47.3528C639.274 46.9165 639.728 46.0193 640.535 44.5772L637.045 42.6228C636.248 44.0474 635.67 45.1568 635.385 45.8672L639.099 47.3528ZM640.535 44.5772C641.254 43.2934 642.091 42.1814 643.043 41.2302L640.214 38.4018C638.987 39.6292 637.932 41.0399 637.045 42.6228L640.535 44.5772ZM643.078 41.1935C643.934 40.2927 645.207 39.424 646.994 38.6358L645.379 34.9762C643.267 35.908 641.501 37.0459 640.178 38.4385L643.078 41.1935ZM647.018 38.6249C648.74 37.8375 650.661 37.43 652.808 37.43V33.43C650.14 33.43 647.646 33.9399 645.355 34.987L647.018 38.6249ZM652.808 37.43C659.002 37.43 663.377 39.3813 666.295 43.0408L669.422 40.5472C665.575 35.7214 659.916 33.43 652.808 33.43V37.43ZM666.305 43.0536C669.42 46.8962 671.018 51.6241 671.018 57.36H675.018C675.018 50.8265 673.176 45.1772 669.412 40.5344L666.305 43.0536ZM671.018 57.36C671.018 63.1251 669.323 67.863 666.002 71.7037L669.027 74.3203C673.044 69.6756 675.018 63.9789 675.018 57.36H671.018ZM666 71.7053C662.852 75.3534 658.274 77.29 651.948 77.29V81.29C659.153 81.29 664.953 79.0413 669.028 74.3187L666 71.7053ZM651.948 77.29C645.356 77.29 640.738 75.1987 637.707 71.2737L634.541 73.7183C638.505 78.852 644.436 81.29 651.948 81.29V77.29ZM637.707 71.2737C634.565 67.2044 632.878 61.4949 632.878 53.92H628.878C628.878 62.0544 630.689 68.7289 634.541 73.7183L637.707 71.2737ZM632.878 53.92C632.878 43.5142 634.892 36.077 638.59 31.2755C642.213 26.5729 647.687 24.1 655.388 24.1V20.1C646.75 20.1 639.969 22.9305 635.421 28.8345C630.95 34.6397 628.878 43.1125 628.878 53.92H632.878ZM655.388 24.1H660.118V20.1H655.388V24.1ZM660.118 24.1C662.288 24.1 664.247 23.8129 665.69 22.9639L663.662 19.5161C663.156 19.8138 662.077 20.1 660.118 20.1V24.1ZM665.763 22.9191C667.531 21.7753 668.138 19.8231 668.138 17.8H664.138C664.138 19.1023 663.771 19.4434 663.59 19.5609L665.763 22.9191ZM666.138 19.8H670.438V15.8H666.138V19.8ZM687.642 52.63H685.642V54.63H687.642V52.63ZM680.332 78H678.332V80H680.332V78ZM680.332 35V33H678.332V35H680.332ZM687.642 35H689.642V33H687.642V35ZM687.642 58.22V56.22H685.642V58.22H687.642ZM687.642 72.41H685.642V74.41H687.642V72.41ZM704.068 70.862L705.122 72.5613L705.143 72.5484L705.164 72.5349L704.068 70.862ZM725.912 78V80H727.912V78H725.912ZM718.602 78H716.602V80H718.602V78ZM718.602 35V33H716.602V35H718.602ZM725.912 35H727.912V33H725.912V35ZM687.642 54.63H697.532V50.63H687.642V54.63ZM697.532 54.63C702.932 54.63 706.618 55.6442 708.916 57.3524C711.102 58.978 712.302 61.4378 712.302 65.1H716.302C716.302 60.4489 714.706 56.6736 711.303 54.1426C708.01 51.6941 703.311 50.63 697.532 50.63V54.63ZM712.302 65.1C712.302 68.9307 711.084 71.5021 708.89 73.1898C706.596 74.9539 702.921 76 697.532 76V80C703.322 80 708.032 78.8961 711.329 76.3602C714.725 73.7479 716.302 69.8693 716.302 65.1H712.302ZM697.532 76H680.332V80H697.532V76ZM682.332 78V35H678.332V78H682.332ZM680.332 37H687.642V33H680.332V37ZM685.642 35V52.63H689.642V35H685.642ZM697.102 56.22H687.642V60.22H697.102V56.22ZM685.642 58.22V72.41H689.642V58.22H685.642ZM687.642 74.41H697.102V70.41H687.642V74.41ZM697.102 74.41C700.275 74.41 703.018 73.8672 705.122 72.5613L703.013 69.1627C701.792 69.9208 699.891 70.41 697.102 70.41V74.41ZM705.164 72.5349C707.593 70.9434 708.562 68.2421 708.562 65.1H704.562C704.562 67.4619 703.868 68.6019 702.972 69.1891L705.164 72.5349ZM708.562 65.1C708.562 62.2952 707.563 59.9152 705.373 58.3225C703.301 56.816 700.438 56.22 697.102 56.22V60.22C700.072 60.22 701.939 60.7707 703.02 61.5575C703.984 62.2582 704.562 63.3182 704.562 65.1H708.562ZM725.912 76H718.602V80H725.912V76ZM720.602 78V35H716.602V78H720.602ZM718.602 37H725.912V33H718.602V37ZM723.912 35V78H727.912V35H723.912ZM41.1014 160V162H43.1014V160H41.1014ZM33.7914 160H31.7914V162H33.7914V160ZM33.7914 122.59H35.7914V120.59H33.7914V122.59ZM17.8814 122.59H15.8814V124.59H17.8814V122.59ZM17.8814 117V115H15.8814V117H17.8814ZM57.0114 117H59.0114V115H57.0114V117ZM57.0114 122.59V124.59H59.0114V122.59H57.0114ZM41.1014 122.59V120.59H39.1014V122.59H41.1014ZM41.1014 158H33.7914V162H41.1014V158ZM35.7914 160V122.59H31.7914V160H35.7914ZM33.7914 120.59H17.8814V124.59H33.7914V120.59ZM19.8814 122.59V117H15.8814V122.59H19.8814ZM17.8814 119H57.0114V115H17.8814V119ZM55.0114 117V122.59H59.0114V117H55.0114ZM57.0114 120.59H41.1014V124.59H57.0114V120.59ZM39.1014 122.59V160H43.1014V122.59H39.1014ZM70.8016 134.63H68.8016V136.63H70.8016V134.63ZM63.4916 160H61.4916V162H63.4916V160ZM63.4916 117V115H61.4916V117H63.4916ZM70.8016 117H72.8016V115H70.8016V117ZM70.8016 140.22V138.22H68.8016V140.22H70.8016ZM70.8016 154.41H68.8016V156.41H70.8016V154.41ZM87.2276 152.862L88.2824 154.561L88.3032 154.548L88.3237 154.535L87.2276 152.862ZM109.072 160V162H111.072V160H109.072ZM101.762 160H99.7616V162H101.762V160ZM101.762 117V115H99.7616V117H101.762ZM109.072 117H111.072V115H109.072V117ZM70.8016 136.63H80.6916V132.63H70.8016V136.63ZM80.6916 136.63C86.092 136.63 89.7785 137.644 92.0757 139.352C94.2619 140.978 95.4616 143.438 95.4616 147.1H99.4616C99.4616 142.449 97.8664 138.674 94.4625 136.143C91.1698 133.694 86.4713 132.63 80.6916 132.63V136.63ZM95.4616 147.1C95.4616 150.931 94.2436 153.502 92.0497 155.19C89.7563 156.954 86.0812 158 80.6916 158V162C86.482 162 91.1919 160.896 94.4886 158.36C97.8846 155.748 99.4616 151.869 99.4616 147.1H95.4616ZM80.6916 158H63.4916V162H80.6916V158ZM65.4916 160V117H61.4916V160H65.4916ZM63.4916 119H70.8016V115H63.4916V119ZM68.8016 117V134.63H72.8016V117H68.8016ZM80.2616 138.22H70.8016V142.22H80.2616V138.22ZM68.8016 140.22V154.41H72.8016V140.22H68.8016ZM70.8016 156.41H80.2616V152.41H70.8016V156.41ZM80.2616 156.41C83.435 156.41 86.1783 155.867 88.2824 154.561L86.1729 151.163C84.9516 151.921 83.0509 152.41 80.2616 152.41V156.41ZM88.3237 154.535C90.7528 152.943 91.7216 150.242 91.7216 147.1H87.7216C87.7216 149.462 87.0278 150.602 86.1316 151.189L88.3237 154.535ZM91.7216 147.1C91.7216 144.295 90.7229 141.915 88.533 140.323C86.4614 138.816 83.5979 138.22 80.2616 138.22V142.22C83.232 142.22 85.0985 142.771 86.1803 143.557C87.1437 144.258 87.7216 145.318 87.7216 147.1H91.7216ZM109.072 158H101.762V162H109.072V158ZM103.762 160V117H99.7616V160H103.762ZM101.762 119H109.072V115H101.762V119ZM107.072 117V160H111.072V117H107.072ZM143.885 140.22V138.22H141.885V140.22H143.885ZM143.885 154.41H141.885V156.41H143.885V154.41ZM163.751 152.862L164.806 154.561L164.826 154.548L164.847 154.535L163.751 152.862ZM143.885 135.06H141.885V137.06H143.885V135.06ZM143.885 122.59V120.59H141.885V122.59H143.885ZM136.575 160H134.575V162H136.575V160ZM136.575 117V115H134.575V117H136.575ZM167.879 119.494L166.875 121.224L166.896 121.236L166.916 121.247L167.879 119.494ZM170.201 133.34L171.696 134.669L171.708 134.655L171.719 134.642L170.201 133.34ZM166.073 136.264L166.578 138.199L166.605 138.192L166.633 138.184L166.073 136.264ZM164.095 136.78L163.59 134.845L162.095 135.235V136.78H164.095ZM164.095 137.21H162.095V138.85L163.703 139.171L164.095 137.21ZM165.127 137.468L164.577 139.391L164.726 139.433L164.879 139.453L165.127 137.468ZM167.535 138.242L168.278 136.385L168.278 136.385L167.535 138.242ZM170.545 139.962L169.295 141.524L169.295 141.524L170.545 139.962ZM172.867 143.058L171.078 143.952L171.101 143.998L171.126 144.042L172.867 143.058ZM169.341 157.076L168.275 155.384L168.275 155.384L169.341 157.076ZM156.785 138.22H143.885V142.22H156.785V138.22ZM141.885 140.22V154.41H145.885V140.22H141.885ZM143.885 156.41H156.785V152.41H143.885V156.41ZM156.785 156.41C159.958 156.41 162.702 155.867 164.806 154.561L162.696 151.163C161.475 151.921 159.574 152.41 156.785 152.41V156.41ZM164.847 154.535C167.276 152.943 168.245 150.242 168.245 147.1H164.245C164.245 149.462 163.551 150.602 162.655 151.189L164.847 154.535ZM168.245 147.1C168.245 144.295 167.246 141.915 165.056 140.323C162.985 138.816 160.121 138.22 156.785 138.22V142.22C159.755 142.22 161.622 142.771 162.703 143.557C163.667 144.258 164.245 145.318 164.245 147.1H168.245ZM143.885 137.06H155.495V133.06H143.885V137.06ZM155.495 137.06C158.813 137.06 161.655 136.506 163.717 135.1C165.916 133.601 166.955 131.324 166.955 128.61H162.955C162.955 130.196 162.417 131.144 161.463 131.795C160.372 132.539 158.483 133.06 155.495 133.06V137.06ZM166.955 128.61C166.955 126.061 166.004 123.893 163.952 122.457C162.029 121.111 159.393 120.59 156.355 120.59V124.59C159.05 124.59 160.714 125.073 161.658 125.733C162.472 126.303 162.955 127.145 162.955 128.61H166.955ZM156.355 120.59H143.885V124.59H156.355V120.59ZM141.885 122.59V135.06H145.885V122.59H141.885ZM138.575 160V117H134.575V160H138.575ZM136.575 119H156.785V115H136.575V119ZM156.785 119C161.086 119 164.405 119.791 166.875 121.224L168.882 117.764C165.619 115.871 161.543 115 156.785 115V119ZM166.916 121.247C168.089 121.891 168.896 122.691 169.424 123.632C169.956 124.582 170.265 125.785 170.265 127.32H174.265C174.265 125.243 173.843 123.336 172.913 121.677C171.978 120.009 170.592 118.702 168.841 117.741L166.916 121.247ZM170.265 127.32C170.265 129.321 169.705 130.846 168.682 132.038L171.719 134.642C173.449 132.624 174.265 130.135 174.265 127.32H170.265ZM168.706 132.011C167.475 133.397 166.401 134.085 165.513 134.344L166.633 138.184C168.496 137.64 170.175 136.379 171.696 134.669L168.706 132.011ZM165.568 134.329L163.59 134.845L164.6 138.715L166.578 138.199L165.568 134.329ZM162.095 136.78V137.21H166.095V136.78H162.095ZM163.703 139.171C163.919 139.215 164.208 139.286 164.577 139.391L165.676 135.545C165.243 135.421 164.844 135.32 164.487 135.249L163.703 139.171ZM164.879 139.453C165.047 139.474 165.625 139.632 166.792 140.099L168.278 136.385C167.152 135.935 166.124 135.577 165.375 135.483L164.879 139.453ZM166.792 140.099C167.778 140.493 168.606 140.972 169.295 141.524L171.794 138.4C170.763 137.576 169.585 136.908 168.278 136.385L166.792 140.099ZM169.295 141.524C169.858 141.974 170.471 142.739 171.078 143.952L174.656 142.164C173.886 140.625 172.951 139.326 171.794 138.4L169.295 141.524ZM171.126 144.042C171.685 145.032 171.985 146.178 171.985 147.53H175.985C175.985 145.557 175.539 143.721 174.608 142.074L171.126 144.042ZM171.985 147.53C171.985 151.422 170.663 153.88 168.275 155.384L170.406 158.768C174.211 156.373 175.985 152.467 175.985 147.53H171.985ZM168.275 155.384C165.594 157.071 161.958 158 157.215 158V162C162.447 162 166.895 160.979 170.406 158.768L168.275 155.384ZM157.215 158H136.575V162H157.215V158ZM191.463 125.256L192.992 126.545L192.992 126.545L191.463 125.256ZM191.463 151.744L192.992 150.455L192.992 150.455L191.463 151.744ZM209.093 153.206L210.507 154.62L210.517 154.61L210.528 154.6L209.093 153.206ZM212.705 144.95V142.95H210.95L210.722 144.69L212.705 144.95ZM220.445 144.95L222.443 145.05L222.548 142.95H220.445V144.95ZM215.027 156.56L213.663 155.097L213.663 155.097L215.027 156.56ZM185.443 154.84L183.912 156.126L183.917 156.132L183.922 156.138L185.443 154.84ZM185.443 122.16L183.922 120.862L183.917 120.868L183.912 120.874L185.443 122.16ZM215.027 120.44L213.663 121.903L213.663 121.903L215.027 120.44ZM220.445 132.05V134.05H222.548L222.443 131.95L220.445 132.05ZM212.705 132.05L210.722 132.31L210.95 134.05H212.705V132.05ZM209.093 123.88L207.658 125.274L207.669 125.284L207.679 125.294L209.093 123.88ZM189.934 123.967C187.037 127.403 185.765 132.368 185.765 138.5H189.765C189.765 132.822 190.958 128.957 192.992 126.545L189.934 123.967ZM185.765 138.5C185.765 144.632 187.037 149.597 189.934 153.033L192.992 150.455C190.958 148.043 189.765 144.178 189.765 138.5H185.765ZM189.934 153.033C192.794 156.425 196.573 158.13 201.095 158.13V154.13C197.705 154.13 195.063 152.911 192.992 150.455L189.934 153.033ZM201.095 158.13C204.88 158.13 208.101 157.026 210.507 154.62L207.679 151.792C206.186 153.284 204.075 154.13 201.095 154.13V158.13ZM210.528 154.6C212.848 152.211 214.188 149.022 214.688 145.21L210.722 144.69C210.305 147.873 209.237 150.187 207.658 151.812L210.528 154.6ZM212.705 146.95H220.445V142.95H212.705V146.95ZM218.447 144.85C218.244 148.913 216.668 152.296 213.663 155.097L216.391 158.023C220.151 154.518 222.187 150.16 222.443 145.05L218.447 144.85ZM213.663 155.097C210.745 157.817 206.64 159.29 201.095 159.29V163.29C207.361 163.29 212.544 161.609 216.391 158.023L213.663 155.097ZM201.095 159.29C194.788 159.29 190.179 157.308 186.964 153.542L183.922 156.138C188.046 160.972 193.871 163.29 201.095 163.29V159.29ZM186.974 153.554C183.716 149.675 182.025 144.709 182.025 138.5H178.025C178.025 145.478 179.946 151.405 183.912 156.126L186.974 153.554ZM182.025 138.5C182.025 132.291 183.716 127.325 186.974 123.446L183.912 120.874C179.946 125.595 178.025 131.522 178.025 138.5H182.025ZM186.964 123.458C190.179 119.692 194.788 117.71 201.095 117.71V113.71C193.871 113.71 188.046 116.028 183.922 120.862L186.964 123.458ZM201.095 117.71C206.64 117.71 210.745 119.183 213.663 121.903L216.391 118.977C212.544 115.391 207.361 113.71 201.095 113.71V117.71ZM213.663 121.903C216.668 124.704 218.244 128.087 218.447 132.15L222.443 131.95C222.187 126.84 220.151 122.482 216.391 118.977L213.663 121.903ZM220.445 130.05H212.705V134.05H220.445V130.05ZM214.688 131.79C214.188 127.979 212.846 124.804 210.507 122.466L207.679 125.294C209.239 126.854 210.304 129.126 210.722 132.31L214.688 131.79ZM210.528 122.486C208.125 120.013 204.897 118.87 201.095 118.87V122.87C204.058 122.87 206.163 123.734 207.658 125.274L210.528 122.486ZM201.095 118.87C196.573 118.87 192.794 120.575 189.934 123.967L192.992 126.545C195.063 124.089 197.705 122.87 201.095 122.87V118.87ZM267.275 140.22V142.22H269.275V140.22H267.275ZM234.595 140.22V138.22H232.507L232.597 140.306L234.595 140.22ZM238.637 152.174L237.176 153.54L237.176 153.54L238.637 152.174ZM255.407 153.808L254.228 152.192L254.217 152.2L254.207 152.208L255.407 153.808ZM259.535 147.1V145.1H257.92L257.58 146.678L259.535 147.1ZM266.845 147.1L268.8 147.523L269.323 145.1H266.845V147.1ZM260.567 157.42L261.819 158.979L261.823 158.976L260.567 157.42ZM232.273 154.84L230.741 156.126L230.746 156.132L230.751 156.138L232.273 154.84ZM232.187 122.16L230.655 120.874L230.65 120.88L230.645 120.886L232.187 122.16ZM262.287 121.902L260.719 123.143L260.724 123.15L260.729 123.157L262.287 121.902ZM256.095 124.482L254.629 125.843L254.646 125.861L254.663 125.879L256.095 124.482ZM238.809 124.396L237.377 122.999L237.368 123.008L237.36 123.018L238.809 124.396ZM234.767 135.06L232.776 134.868L232.565 137.06H234.767V135.06ZM259.535 135.06V137.06H261.535V135.06H259.535ZM267.275 138.22H234.595V142.22H267.275V138.22ZM232.597 140.306C232.837 145.893 234.259 150.42 237.176 153.54L240.098 150.808C238.083 148.653 236.811 145.211 236.593 140.134L232.597 140.306ZM237.176 153.54C240.033 156.596 243.664 158.13 247.925 158.13V154.13C244.732 154.13 242.171 153.026 240.098 150.808L237.176 153.54ZM247.925 158.13C251.221 158.13 254.151 157.25 256.607 155.408L254.207 152.208C252.534 153.462 250.476 154.13 247.925 154.13V158.13ZM256.586 155.424C259.159 153.546 260.771 150.854 261.49 147.522L257.58 146.678C257.037 149.194 255.897 150.974 254.228 152.192L256.586 155.424ZM259.535 149.1H266.845V145.1H259.535V149.1ZM264.89 146.677C264.066 150.49 262.21 153.524 259.311 155.864L261.823 158.976C265.459 156.042 267.789 152.196 268.8 147.523L264.89 146.677ZM259.314 155.861C256.544 158.087 252.81 159.29 247.925 159.29V163.29C253.474 163.29 258.168 161.913 261.819 158.979L259.314 155.861ZM247.925 159.29C241.618 159.29 237.008 157.308 233.794 153.542L230.751 156.138C234.876 160.972 240.701 163.29 247.925 163.29V159.29ZM233.804 153.554C230.546 149.675 228.855 144.709 228.855 138.5H224.855C224.855 145.478 226.776 151.405 230.741 156.126L233.804 153.554ZM228.855 138.5C228.855 132.283 230.522 127.313 233.728 123.434L230.645 120.886C226.742 125.607 224.855 131.53 224.855 138.5H228.855ZM233.718 123.446C236.882 119.679 241.378 117.71 247.495 117.71V113.71C240.425 113.71 234.715 116.041 230.655 120.874L233.718 123.446ZM247.495 117.71C253.646 117.71 257.924 119.613 260.719 123.143L263.855 120.661C260.114 115.935 254.53 113.71 247.495 113.71V117.71ZM260.729 123.157C263.741 126.896 265.275 131.401 265.275 136.78H269.275C269.275 130.578 267.483 125.164 263.844 120.647L260.729 123.157ZM265.275 136.78V140.22H269.275V136.78H265.275ZM257.56 123.121C254.919 120.277 251.508 118.87 247.495 118.87V122.87C250.476 122.87 252.798 123.871 254.629 125.843L257.56 123.121ZM247.495 118.87C243.497 118.87 240.073 120.236 237.377 122.999L240.24 125.793C242.131 123.855 244.497 122.87 247.495 122.87V118.87ZM237.36 123.018C234.7 125.814 233.258 129.867 232.776 134.868L236.757 135.252C237.193 130.735 238.446 127.679 240.258 125.774L237.36 123.018ZM234.767 137.06H259.535V133.06H234.767V137.06ZM261.535 135.06C261.535 130.063 260.316 125.945 257.526 123.085L254.663 125.879C256.46 127.72 257.535 130.655 257.535 135.06H261.535ZM281.854 160V162H283.854V160H281.854ZM274.544 160H272.544V162H274.544V160ZM274.544 117V115H272.544V117H274.544ZM305.074 117H307.074V115H305.074V117ZM305.074 122.59V124.59H307.074V122.59H305.074ZM281.854 122.59V120.59H279.854V122.59H281.854ZM281.854 158H274.544V162H281.854V158ZM276.544 160V117H272.544V160H276.544ZM274.544 119H305.074V115H274.544V119ZM303.074 117V122.59H307.074V117H303.074ZM305.074 120.59H281.854V124.59H305.074V120.59ZM279.854 122.59V160H283.854V122.59H279.854ZM310.661 172.9V174.9H312.661V172.9H310.661ZM303.351 172.9H301.351V174.9H303.351V172.9ZM303.351 154.41V152.41H301.351V154.41H303.351ZM312.123 148.046L310.249 147.346L310.247 147.353L310.244 147.36L312.123 148.046ZM314.531 117V115H312.531V117H314.531ZM345.921 117H347.921V115H345.921V117ZM345.921 154.41H343.921V156.41H345.921V154.41ZM353.661 154.41H355.661V152.41H353.661V154.41ZM353.661 172.9V174.9H355.661V172.9H353.661ZM346.351 172.9H344.351V174.9H346.351V172.9ZM346.351 160H348.351V158H346.351V160ZM310.661 160V158H308.661V160H310.661ZM315.391 154.41L314.128 152.859L309.767 156.41H315.391V154.41ZM338.611 154.41V156.41H340.611V154.41H338.611ZM338.611 122.59H340.611V120.59H338.611V122.59ZM321.411 122.59V120.59H319.411V122.59H321.411ZM310.661 170.9H303.351V174.9H310.661V170.9ZM305.351 172.9V154.41H301.351V172.9H305.351ZM303.351 156.41H305.071V152.41H303.351V156.41ZM305.071 156.41C307.145 156.41 308.998 155.695 310.539 154.304C312.037 152.951 313.161 151.037 314.002 148.732L310.244 147.36C309.537 149.298 308.711 150.565 307.859 151.334C307.05 152.065 306.15 152.41 305.071 152.41V156.41ZM313.997 148.746C315.736 144.086 316.531 136.724 316.531 126.89H312.531C312.531 136.664 311.72 143.406 310.249 147.346L313.997 148.746ZM316.531 126.89V117H312.531V126.89H316.531ZM314.531 119H345.921V115H314.531V119ZM343.921 117V154.41H347.921V117H343.921ZM345.921 156.41H353.661V152.41H345.921V156.41ZM351.661 154.41V172.9H355.661V154.41H351.661ZM353.661 170.9H346.351V174.9H353.661V170.9ZM348.351 172.9V160H344.351V172.9H348.351ZM346.351 158H310.661V162H346.351V158ZM308.661 160V172.9H312.661V160H308.661ZM319.411 127.75C319.411 134.931 318.912 140.614 317.955 144.853C316.983 149.157 315.609 151.653 314.128 152.859L316.654 155.961C319.186 153.899 320.822 150.318 321.857 145.735C322.906 141.088 323.411 135.075 323.411 127.75H319.411ZM315.391 156.41H338.611V152.41H315.391V156.41ZM340.611 154.41V122.59H336.611V154.41H340.611ZM338.611 120.59H321.411V124.59H338.611V120.59ZM319.411 122.59V127.75H323.411V122.59H319.411ZM387.691 152.69H389.691L385.903 151.796L387.691 152.69ZM385.455 155.7L383.999 154.329L383.977 154.353L383.956 154.377L385.455 155.7ZM382.531 158.28L381.402 156.629L381.381 156.644L381.361 156.659L382.531 158.28ZM378.317 160.344L377.649 158.459L377.649 158.459L378.317 160.344ZM361.547 157.678L360.199 159.155L360.199 159.155L361.547 157.678ZM362.149 138.758L363.392 140.325L363.401 140.318L363.41 140.311L362.149 138.758ZM382.703 134.544L383.153 136.493L383.179 136.487L383.205 136.48L382.703 134.544ZM386.057 132.91L387.472 134.324L387.5 134.296L387.527 134.267L386.057 132.91ZM387.347 130.76L385.45 130.128L385.426 130.2L385.407 130.275L387.347 130.76ZM365.761 129.9V131.9H367.761V129.9H365.761ZM358.451 129.9H356.451V131.9H358.451V129.9ZM363.439 119.236L364.594 120.869L363.439 119.236ZM395.087 152.088L393.1 152.309L393.101 152.322L393.103 152.336L395.087 152.088ZM395.517 153.636L393.661 154.379L393.691 154.456L393.729 154.53L395.517 153.636ZM396.807 154.754L396.233 156.67L396.257 156.677L396.281 156.684L396.807 154.754ZM399.301 154.84H401.301V152.605L399.081 152.852L399.301 154.84ZM399.301 160L399.726 161.954L401.301 161.612V160H399.301ZM389.669 159.14L390.762 157.465L390.762 157.465L389.669 159.14ZM387.691 136.006H389.691L385.903 135.112L387.691 136.006ZM387.347 136.436L385.933 135.022L385.793 135.162L385.683 135.327L387.347 136.436ZM386.315 137.296L387.344 139.011L387.405 138.975L387.462 138.934L386.315 137.296ZM384.251 138.242L383.579 136.359L383.556 136.367L383.534 136.375L384.251 138.242ZM380.897 139.016L380.593 137.039L380.582 137.041L380.897 139.016ZM368.513 141.252L367.511 139.521L367.501 139.527L367.491 139.533L368.513 141.252ZM367.739 153.808L366.325 155.222L366.351 155.247L366.377 155.272L367.739 153.808ZM383.649 152.002L382.206 150.618L382.206 150.618L383.649 152.002ZM385.903 151.796C385.813 151.976 385.662 152.253 385.439 152.644L388.912 154.628C389.148 154.216 389.341 153.863 389.48 153.584L385.903 151.796ZM385.439 152.644C385.346 152.807 384.94 153.329 383.999 154.329L386.912 157.071C387.805 156.121 388.546 155.268 388.912 154.628L385.439 152.644ZM383.956 154.377C383.207 155.225 382.357 155.976 381.402 156.629L383.661 159.931C384.885 159.093 385.984 158.124 386.955 157.023L383.956 154.377ZM381.361 156.659C380.537 157.253 379.324 157.865 377.649 158.459L378.986 162.229C380.865 161.562 382.462 160.797 383.702 159.901L381.361 156.659ZM377.649 158.459C376.099 159.009 374.435 159.29 372.641 159.29V163.29C374.861 163.29 376.981 162.94 378.986 162.229L377.649 158.459ZM372.641 159.29C368.213 159.29 365.057 158.174 362.896 156.201L360.199 159.155C363.313 161.998 367.553 163.29 372.641 163.29V159.29ZM362.896 156.201C360.701 154.197 359.591 151.65 359.591 148.39H355.591C355.591 152.698 357.12 156.343 360.199 159.155L362.896 156.201ZM359.591 148.39C359.591 144.963 360.851 142.339 363.392 140.325L360.907 137.191C357.371 139.993 355.591 143.791 355.591 148.39H359.591ZM363.41 140.311C365.91 138.282 370.27 137.06 376.941 137.06V133.06C369.967 133.06 364.466 134.303 360.889 137.205L363.41 140.311ZM376.941 137.06C379.372 137.06 381.459 136.884 383.153 136.493L382.254 132.595C380.967 132.892 379.212 133.06 376.941 133.06V137.06ZM383.205 136.48C384.9 136.041 386.418 135.378 387.472 134.324L384.643 131.496C384.321 131.818 383.603 132.245 382.202 132.608L383.205 136.48ZM387.527 134.267C388.351 133.374 389.007 132.368 389.288 131.245L385.407 130.275C385.344 130.528 385.14 130.955 384.588 131.553L387.527 134.267ZM389.245 131.392C389.564 130.434 389.691 129.344 389.691 128.18H385.691C385.691 129.08 385.589 129.71 385.45 130.128L389.245 131.392ZM389.691 128.18C389.691 125.177 388.543 122.685 386.129 121.044C383.852 119.496 380.689 118.87 376.941 118.87V122.87C380.361 122.87 382.572 123.463 383.879 124.351C385.048 125.146 385.691 126.309 385.691 128.18H389.691ZM376.941 118.87C372.998 118.87 369.669 119.658 367.3 121.572C364.849 123.551 363.761 126.455 363.761 129.9H367.761C367.761 127.325 368.538 125.714 369.813 124.683C371.17 123.587 373.432 122.87 376.941 122.87V118.87ZM365.761 127.9H358.451V131.9H365.761V127.9ZM360.451 129.9C360.451 125.665 361.894 122.778 364.594 120.869L362.285 117.603C358.335 120.395 356.451 124.617 356.451 129.9H360.451ZM364.594 120.869C367.472 118.835 371.521 117.71 376.941 117.71V113.71C371.01 113.71 366.057 114.936 362.285 117.603L364.594 120.869ZM376.941 117.71C382.754 117.71 386.745 118.861 389.251 120.83C391.665 122.727 393.001 125.624 393.001 129.9H397.001C397.001 124.716 395.328 120.518 391.722 117.685C388.208 114.924 383.169 113.71 376.941 113.71V117.71ZM393.001 129.9V149.68H397.001V129.9H393.001ZM393.001 149.68C393.001 150.781 393.029 151.677 393.1 152.309L397.075 151.867C397.031 151.467 397.001 150.757 397.001 149.68H393.001ZM393.103 152.336C393.187 153.01 393.388 153.696 393.661 154.379L397.374 152.893C397.189 152.429 397.102 152.083 397.072 151.84L393.103 152.336ZM393.729 154.53C394.242 155.558 395.091 156.327 396.233 156.67L397.382 152.838C397.364 152.833 397.358 152.829 397.359 152.83C397.36 152.83 397.363 152.832 397.365 152.834C397.367 152.836 397.363 152.833 397.354 152.821C397.344 152.808 397.327 152.783 397.306 152.742L393.729 154.53ZM396.281 156.684C397.256 156.949 398.37 156.956 399.522 156.828L399.081 152.852C398.169 152.954 397.621 152.903 397.334 152.824L396.281 156.684ZM397.301 154.84V160H401.301V154.84H397.301ZM398.877 158.046C397.688 158.304 396.54 158.43 395.431 158.43V162.43C396.845 162.43 398.278 162.269 399.726 161.954L398.877 158.046ZM395.431 158.43C393.084 158.43 391.614 158.021 390.762 157.465L388.577 160.815C390.362 161.979 392.734 162.43 395.431 162.43V158.43ZM390.762 157.465C390.3 157.163 389.691 156.326 389.691 153.98H385.691C385.691 156.794 386.402 159.397 388.577 160.815L390.762 157.465ZM389.691 153.98V152.69H385.691V153.98H389.691ZM389.691 138.93V136.006H385.691V138.93H389.691ZM385.903 135.112C385.932 135.053 385.958 135.011 385.974 134.988C385.989 134.964 386 134.952 386.001 134.95C386.002 134.948 385.998 134.954 385.986 134.967C385.974 134.98 385.957 134.998 385.933 135.022L388.762 137.85C388.975 137.637 389.276 137.31 389.48 136.9L385.903 135.112ZM385.683 135.327C385.724 135.266 385.758 135.224 385.775 135.204C385.785 135.193 385.792 135.185 385.797 135.18C385.801 135.175 385.804 135.173 385.804 135.172C385.805 135.172 385.798 135.178 385.784 135.191C385.77 135.204 385.75 135.221 385.723 135.244C385.611 135.337 385.432 135.473 385.169 135.658L387.462 138.934C387.773 138.717 388.052 138.51 388.284 138.316C388.473 138.159 388.782 137.889 389.012 137.545L385.683 135.327ZM385.287 135.581C384.852 135.842 384.289 136.105 383.579 136.359L384.924 140.125C385.819 139.806 386.632 139.438 387.344 139.011L385.287 135.581ZM383.534 136.375C382.992 136.584 382.044 136.816 380.593 137.039L381.202 140.993C382.733 140.757 384.02 140.474 384.969 140.109L383.534 136.375ZM380.582 137.041C379.273 137.251 377.776 137.36 376.081 137.36V141.36C377.942 141.36 379.656 141.24 381.213 140.991L380.582 137.041ZM376.081 137.36C372.913 137.36 370.035 138.06 367.511 139.521L369.516 142.983C371.349 141.921 373.517 141.36 376.081 141.36V137.36ZM367.491 139.533C364.642 141.227 363.331 144.054 363.331 147.53H367.331C367.331 145.158 368.142 143.8 369.536 142.971L367.491 139.533ZM363.331 147.53C363.331 150.562 364.293 153.19 366.325 155.222L369.154 152.394C367.976 151.216 367.331 149.658 367.331 147.53H363.331ZM366.377 155.272C368.485 157.234 371.217 158.13 374.361 158.13V154.13C372.002 154.13 370.32 153.478 369.102 152.344L366.377 155.272ZM374.361 158.13C378.504 158.13 382.109 156.5 385.093 153.386L382.206 150.618C379.915 153.008 377.329 154.13 374.361 154.13V158.13ZM385.093 153.386C388.292 150.052 389.691 145.091 389.691 138.93H385.691C385.691 144.58 384.397 148.334 382.206 150.618L385.093 153.386ZM435.322 127.062L433.81 125.753L433.802 125.762L433.795 125.77L435.322 127.062ZM435.236 151.916L433.72 153.22L433.734 153.236L433.748 153.252L435.236 151.916ZM454.414 151.916L452.913 150.595L452.911 150.597L454.414 151.916ZM454.414 126.89L452.898 128.194L452.912 128.21L452.926 128.226L454.414 126.89ZM463.358 99.8H465.358V97.8H463.358V99.8ZM463.1 103.326L465.07 103.674L465.071 103.664L465.073 103.655L463.1 103.326ZM461.896 106.766L460.092 105.903L460.076 105.936L460.062 105.969L461.896 106.766ZM458.714 109.862L457.846 108.06L457.833 108.066L457.82 108.073L458.714 109.862ZM429.388 129.9L427.392 129.773L427.257 131.9H429.388V129.9ZM429.818 129.9V131.9H431.512L431.791 130.229L429.818 129.9ZM430.162 128.61L428.305 127.867L428.283 127.922L428.265 127.978L430.162 128.61ZM431.71 125.6L433.455 126.577L433.455 126.577L431.71 125.6ZM434.548 121.816L435.962 123.23L435.98 123.212L435.998 123.193L434.548 121.816ZM439.106 118.806L439.913 120.636L439.926 120.63L439.938 120.625L439.106 118.806ZM460.778 123.794L459.214 125.041L459.219 125.047L459.225 125.054L460.778 123.794ZM460.434 155.012L458.921 153.704L458.92 153.705L460.434 155.012ZM429.044 154.496L430.627 153.274L430.627 153.274L429.044 154.496ZM457.596 103.24L458.61 104.964L458.647 104.942L458.683 104.919L457.596 103.24ZM459.058 99.8V97.8H457.058V99.8H459.058ZM444.868 120.59C440.476 120.59 436.751 122.354 433.81 125.753L436.834 128.371C439.053 125.807 441.692 124.59 444.868 124.59V120.59ZM433.795 125.77C430.878 129.218 429.538 133.83 429.538 139.36H433.538C433.538 134.456 434.721 130.868 436.849 128.354L433.795 125.77ZM429.538 139.36C429.538 145.129 430.827 149.856 433.72 153.22L436.752 150.612C434.715 148.242 433.538 144.599 433.538 139.36H429.538ZM433.748 153.252C436.664 156.499 440.423 158.13 444.868 158.13V154.13C441.516 154.13 438.854 152.951 436.724 150.58L433.748 153.252ZM444.868 158.13C449.314 158.13 453.054 156.498 455.917 153.235L452.911 150.597C450.843 152.953 448.219 154.13 444.868 154.13V158.13ZM455.915 153.237C458.876 149.873 460.198 145.139 460.198 139.36H456.198C456.198 144.589 454.997 148.226 452.913 150.595L455.915 153.237ZM460.198 139.36C460.198 133.585 458.878 128.867 455.902 125.554L452.926 128.226C454.996 130.531 456.198 134.127 456.198 139.36H460.198ZM455.93 125.586C453.072 122.262 449.329 120.59 444.868 120.59V124.59C448.205 124.59 450.826 125.785 452.898 128.194L455.93 125.586ZM461.358 99.8C461.358 101.035 461.277 102.098 461.127 102.997L465.073 103.655C465.267 102.49 465.358 101.202 465.358 99.8H461.358ZM461.131 102.978C461.001 103.712 460.678 104.678 460.092 105.903L463.7 107.629C464.376 106.217 464.855 104.89 465.07 103.674L461.131 102.978ZM460.062 105.969C459.716 106.765 459.051 107.48 457.846 108.06L459.582 111.664C461.474 110.753 462.93 109.404 463.73 107.563L460.062 105.969ZM457.82 108.073C456.691 108.637 455.131 108.98 453.038 108.98V112.98C455.532 112.98 457.756 112.577 459.608 111.651L457.82 108.073ZM453.038 108.98H445.728V112.98H453.038V108.98ZM445.728 108.98C440.236 108.98 435.744 110.717 432.561 114.403C429.439 118.018 427.808 123.244 427.392 129.773L431.384 130.027C431.771 123.943 433.264 119.709 435.589 117.017C437.853 114.396 441.13 112.98 445.728 112.98V108.98ZM429.388 131.9H429.818V127.9H429.388V131.9ZM431.791 130.229C431.824 130.028 431.904 129.708 432.059 129.242L428.265 127.978C428.076 128.544 427.927 129.084 427.845 129.571L431.791 130.229ZM432.019 129.353C432.194 128.917 432.648 128.019 433.455 126.577L429.965 124.623C429.167 126.047 428.589 127.157 428.305 127.867L432.019 129.353ZM433.455 126.577C434.174 125.293 435.011 124.181 435.962 123.23L433.134 120.402C431.906 121.629 430.851 123.04 429.965 124.623L433.455 126.577ZM435.998 123.193C436.854 122.293 438.127 121.424 439.913 120.636L438.299 116.976C436.187 117.908 434.421 119.046 433.098 120.438L435.998 123.193ZM439.938 120.625C441.66 119.837 443.58 119.43 445.728 119.43V115.43C443.06 115.43 440.565 115.94 438.275 116.987L439.938 120.625ZM445.728 119.43C451.922 119.43 456.297 121.381 459.214 125.041L462.342 122.547C458.494 117.721 452.836 115.43 445.728 115.43V119.43ZM459.225 125.054C462.34 128.896 463.938 133.624 463.938 139.36H467.938C467.938 132.827 466.096 127.177 462.332 122.534L459.225 125.054ZM463.938 139.36C463.938 145.125 462.243 149.863 458.921 153.704L461.947 156.32C465.964 151.676 467.938 145.979 467.938 139.36H463.938ZM458.92 153.705C455.772 157.353 451.194 159.29 444.868 159.29V163.29C452.073 163.29 457.873 161.041 461.948 156.319L458.92 153.705ZM444.868 159.29C438.276 159.29 433.658 157.199 430.627 153.274L427.461 155.718C431.425 160.852 437.356 163.29 444.868 163.29V159.29ZM430.627 153.274C427.485 149.204 425.798 143.495 425.798 135.92H421.798C421.798 144.054 423.608 150.729 427.461 155.718L430.627 153.274ZM425.798 135.92C425.798 125.514 427.812 118.077 431.51 113.275C435.132 108.573 440.606 106.1 448.308 106.1V102.1C439.67 102.1 432.889 104.93 428.341 110.835C423.87 116.64 421.798 125.112 421.798 135.92H425.798ZM448.308 106.1H453.038V102.1H448.308V106.1ZM453.038 106.1C455.208 106.1 457.167 105.813 458.61 104.964L456.582 101.516C456.076 101.814 454.997 102.1 453.038 102.1V106.1ZM458.683 104.919C460.45 103.775 461.058 101.823 461.058 99.8H457.058C457.058 101.102 456.691 101.443 456.51 101.561L458.683 104.919ZM459.058 101.8H463.358V97.8H459.058V101.8ZM480.561 134.63H478.561V136.63H480.561V134.63ZM473.251 160H471.251V162H473.251V160ZM473.251 117V115H471.251V117H473.251ZM480.561 117H482.561V115H480.561V117ZM480.561 140.22V138.22H478.561V140.22H480.561ZM480.561 154.41H478.561V156.41H480.561V154.41ZM496.987 152.862L498.042 154.561L498.063 154.548L498.083 154.535L496.987 152.862ZM518.831 160V162H520.831V160H518.831ZM511.521 160H509.521V162H511.521V160ZM511.521 117V115H509.521V117H511.521ZM518.831 117H520.831V115H518.831V117ZM480.561 136.63H490.451V132.63H480.561V136.63ZM490.451 136.63C495.852 136.63 499.538 137.644 501.835 139.352C504.022 140.978 505.221 143.438 505.221 147.1H509.221C509.221 142.449 507.626 138.674 504.222 136.143C500.93 133.694 496.231 132.63 490.451 132.63V136.63ZM505.221 147.1C505.221 150.931 504.003 153.502 501.809 155.19C499.516 156.954 495.841 158 490.451 158V162C496.242 162 500.952 160.896 504.248 158.36C507.644 155.748 509.221 151.869 509.221 147.1H505.221ZM490.451 158H473.251V162H490.451V158ZM475.251 160V117H471.251V160H475.251ZM473.251 119H480.561V115H473.251V119ZM478.561 117V134.63H482.561V117H478.561ZM490.021 138.22H480.561V142.22H490.021V138.22ZM478.561 140.22V154.41H482.561V140.22H478.561ZM480.561 156.41H490.021V152.41H480.561V156.41ZM490.021 156.41C493.195 156.41 495.938 155.867 498.042 154.561L495.933 151.163C494.711 151.921 492.811 152.41 490.021 152.41V156.41ZM498.083 154.535C500.513 152.943 501.481 150.242 501.481 147.1H497.481C497.481 149.462 496.788 150.602 495.891 151.189L498.083 154.535ZM501.481 147.1C501.481 144.295 500.483 141.915 498.293 140.323C496.221 138.816 493.358 138.22 490.021 138.22V142.22C492.992 142.22 494.858 142.771 495.94 143.557C496.903 144.258 497.481 145.318 497.481 147.1H501.481ZM518.831 158H511.521V162H518.831V158ZM513.521 160V117H509.521V160H513.521ZM511.521 119H518.831V115H511.521V119ZM516.831 117V160H520.831V117H516.831ZM566.098 117H568.098V115H566.098V117ZM566.098 160V162H568.098V160H566.098ZM558.788 160H556.788V162H558.788V160ZM558.788 122.59H560.788V120.59H558.788V122.59ZM541.588 122.59V120.59H539.588V122.59H541.588ZM538.406 153.98L536.608 153.105L536.603 153.115L538.406 153.98ZM527.828 160.43L527.58 162.415L527.703 162.43H527.828V160.43ZM524.388 160H522.388V161.766L524.14 161.985L524.388 160ZM524.388 153.98L524.937 152.057L522.388 151.329V153.98H524.388ZM529.634 153.378L528.698 151.61L528.698 151.61L529.634 153.378ZM532.3 150.282L530.551 149.311L530.537 149.336L530.524 149.361L532.3 150.282ZM534.106 143.316L532.122 143.063L532.12 143.079L532.118 143.095L534.106 143.316ZM534.708 117V115H532.708V117H534.708ZM564.098 117V160H568.098V117H564.098ZM566.098 158H558.788V162H566.098V158ZM560.788 160V122.59H556.788V160H560.788ZM558.788 120.59H541.588V124.59H558.788V120.59ZM539.588 122.59V132.05H543.588V122.59H539.588ZM539.588 132.05C539.588 142.275 538.515 149.186 536.608 153.105L540.204 154.855C542.539 150.059 543.588 142.35 543.588 132.05H539.588ZM536.603 153.115C535.711 154.971 534.556 156.266 533.172 157.11C531.782 157.957 530.031 158.43 527.828 158.43V162.43C530.612 162.43 533.118 161.828 535.254 160.525C537.396 159.219 539.036 157.289 540.209 154.845L536.603 153.115ZM528.076 158.445L524.636 158.015L524.14 161.985L527.58 162.415L528.076 158.445ZM526.388 160V153.98H522.388V160H526.388ZM523.838 155.903C524.471 156.084 525.155 156.152 525.85 156.152V152.152C525.398 152.152 525.107 152.106 524.937 152.057L523.838 155.903ZM525.85 156.152C527.6 156.152 529.214 155.863 530.57 155.146L528.698 151.61C528.104 151.925 527.196 152.152 525.85 152.152V156.152ZM530.57 155.146C532.057 154.358 533.186 152.918 534.075 151.203L530.524 149.361C529.808 150.742 529.159 151.366 528.698 151.61L530.57 155.146ZM534.048 151.253C535.1 149.36 535.739 146.727 536.094 143.537L532.118 143.095C531.784 146.097 531.22 148.108 530.551 149.311L534.048 151.253ZM536.09 143.569C536.506 140.299 536.708 136.165 536.708 131.19H532.708C532.708 136.077 532.508 140.026 532.122 143.063L536.09 143.569ZM536.708 131.19V117H532.708V131.19H536.708ZM534.708 119H566.098V115H534.708V119ZM600.978 160V162H602.978V160H600.978ZM593.668 160H591.668V162H593.668V160ZM593.668 117V115H591.668V117H593.668ZM624.198 117H626.198V115H624.198V117ZM624.198 122.59V124.59H626.198V122.59H624.198ZM600.978 122.59V120.59H598.978V122.59H600.978ZM600.978 158H593.668V162H600.978V158ZM595.668 160V117H591.668V160H595.668ZM593.668 119H624.198V115H593.668V119ZM622.198 117V122.59H626.198V117H622.198ZM624.198 120.59H600.978V124.59H624.198V120.59ZM598.978 122.59V160H602.978V122.59H598.978ZM631.786 154.84L630.255 156.126L630.26 156.132L630.265 156.138L631.786 154.84ZM631.786 122.16L630.265 120.862L630.26 120.868L630.255 120.874L631.786 122.16ZM663.004 122.16L661.473 123.446L661.478 123.452L661.483 123.458L663.004 122.16ZM663.004 154.84L661.483 153.542L661.478 153.548L661.473 153.554L663.004 154.84ZM637.806 125.256L639.335 126.545L639.335 126.545L637.806 125.256ZM637.806 151.744L639.335 150.455L639.335 150.455L637.806 151.744ZM657.07 151.744L658.599 153.033L658.599 153.033L657.07 151.744ZM657.07 125.256L658.599 123.967L658.599 123.967L657.07 125.256ZM633.318 153.554C630.06 149.675 628.368 144.709 628.368 138.5H624.368C624.368 145.478 626.289 151.405 630.255 156.126L633.318 153.554ZM628.368 138.5C628.368 132.291 630.06 127.325 633.318 123.446L630.255 120.874C626.289 125.595 624.368 131.522 624.368 138.5H628.368ZM633.308 123.458C636.522 119.692 641.132 117.71 647.438 117.71V113.71C640.214 113.71 634.39 116.028 630.265 120.862L633.308 123.458ZM647.438 117.71C653.746 117.71 658.319 119.692 661.473 123.446L664.536 120.874C660.466 116.028 654.661 113.71 647.438 113.71V117.71ZM661.483 123.458C664.793 127.337 666.508 132.299 666.508 138.5H670.508C670.508 131.514 668.554 125.583 664.526 120.862L661.483 123.458ZM666.508 138.5C666.508 144.701 664.793 149.663 661.483 153.542L664.526 156.138C668.554 151.417 670.508 145.486 670.508 138.5H666.508ZM661.473 153.554C658.319 157.308 653.746 159.29 647.438 159.29V163.29C654.661 163.29 660.466 160.972 664.536 156.126L661.473 153.554ZM647.438 159.29C641.132 159.29 636.522 157.308 633.308 153.542L630.265 156.138C634.39 160.972 640.214 163.29 647.438 163.29V159.29ZM636.277 123.967C633.381 127.403 632.108 132.368 632.108 138.5H636.108C636.108 132.822 637.302 128.957 639.335 126.545L636.277 123.967ZM632.108 138.5C632.108 144.632 633.381 149.597 636.277 153.033L639.335 150.455C637.302 148.043 636.108 144.178 636.108 138.5H632.108ZM636.277 153.033C639.137 156.425 642.916 158.13 647.438 158.13V154.13C644.049 154.13 641.406 152.911 639.335 150.455L636.277 153.033ZM647.438 158.13C651.961 158.13 655.739 156.425 658.599 153.033L655.541 150.455C653.471 152.911 650.828 154.13 647.438 154.13V158.13ZM658.599 153.033C661.496 149.597 662.768 144.632 662.768 138.5H658.768C658.768 144.178 657.575 148.043 655.541 150.455L658.599 153.033ZM662.768 138.5C662.768 132.368 661.496 127.403 658.599 123.967L655.541 126.545C657.575 128.957 658.768 132.822 658.768 138.5H662.768ZM658.599 123.967C655.739 120.575 651.961 118.87 647.438 118.87V122.87C650.828 122.87 653.471 124.089 655.541 126.545L658.599 123.967ZM647.438 118.87C642.916 118.87 639.137 120.575 636.277 123.967L639.335 126.545C641.406 124.089 644.049 122.87 647.438 122.87V118.87ZM694.298 160V162H696.298V160H694.298ZM686.988 160H684.988V162H686.988V160ZM686.988 122.59H688.988V120.59H686.988V122.59ZM671.078 122.59H669.078V124.59H671.078V122.59ZM671.078 117V115H669.078V117H671.078ZM710.208 117H712.208V115H710.208V117ZM710.208 122.59V124.59H712.208V122.59H710.208ZM694.298 122.59V120.59H692.298V122.59H694.298ZM694.298 158H686.988V162H694.298V158ZM688.988 160V122.59H684.988V160H688.988ZM686.988 120.59H671.078V124.59H686.988V120.59ZM673.078 122.59V117H669.078V122.59H673.078ZM671.078 119H710.208V115H671.078V119ZM708.208 117V122.59H712.208V117H708.208ZM710.208 120.59H694.298V124.59H710.208V120.59ZM692.298 122.59V160H696.298V122.59H692.298ZM718.223 154.84L716.692 156.126L716.697 156.132L716.702 156.138L718.223 154.84ZM718.223 122.16L716.702 120.862L716.697 120.868L716.692 120.874L718.223 122.16ZM749.441 122.16L747.91 123.446L747.915 123.452L747.92 123.458L749.441 122.16ZM749.441 154.84L747.92 153.542L747.915 153.548L747.91 153.554L749.441 154.84ZM724.243 125.256L725.772 126.545L725.772 126.545L724.243 125.256ZM724.243 151.744L725.772 150.455L725.772 150.455L724.243 151.744ZM743.507 151.744L745.036 153.033L745.036 153.033L743.507 151.744ZM743.507 125.256L745.036 123.967L745.036 123.967L743.507 125.256ZM719.754 153.554C716.496 149.675 714.805 144.709 714.805 138.5H710.805C710.805 145.478 712.726 151.405 716.692 156.126L719.754 153.554ZM714.805 138.5C714.805 132.291 716.496 127.325 719.754 123.446L716.692 120.874C712.726 125.595 710.805 131.522 710.805 138.5H714.805ZM719.744 123.458C722.959 119.692 727.568 117.71 733.875 117.71V113.71C726.651 113.71 720.826 116.028 716.702 120.862L719.744 123.458ZM733.875 117.71C740.183 117.71 744.756 119.692 747.91 123.446L750.972 120.874C746.902 116.028 741.098 113.71 733.875 113.71V117.71ZM747.92 123.458C751.23 127.337 752.945 132.299 752.945 138.5H756.945C756.945 131.514 754.991 125.583 750.962 120.862L747.92 123.458ZM752.945 138.5C752.945 144.701 751.23 149.663 747.92 153.542L750.962 156.138C754.991 151.417 756.945 145.486 756.945 138.5H752.945ZM747.91 153.554C744.756 157.308 740.183 159.29 733.875 159.29V163.29C741.098 163.29 746.902 160.972 750.972 156.126L747.91 153.554ZM733.875 159.29C727.568 159.29 722.959 157.308 719.744 153.542L716.702 156.138C720.826 160.972 726.651 163.29 733.875 163.29V159.29ZM722.714 123.967C719.817 127.403 718.545 132.368 718.545 138.5H722.545C722.545 132.822 723.738 128.957 725.772 126.545L722.714 123.967ZM718.545 138.5C718.545 144.632 719.817 149.597 722.714 153.033L725.772 150.455C723.738 148.043 722.545 144.178 722.545 138.5H718.545ZM722.714 153.033C725.574 156.425 729.353 158.13 733.875 158.13V154.13C730.485 154.13 727.843 152.911 725.772 150.455L722.714 153.033ZM733.875 158.13C738.397 158.13 742.176 156.425 745.036 153.033L741.978 150.455C739.907 152.911 737.265 154.13 733.875 154.13V158.13ZM745.036 153.033C747.933 149.597 749.205 144.632 749.205 138.5H745.205C745.205 144.178 744.012 148.043 741.978 150.455L745.036 153.033ZM749.205 138.5C749.205 132.368 747.933 127.403 745.036 123.967L741.978 126.545C744.012 128.957 745.205 132.822 745.205 138.5H749.205ZM745.036 123.967C742.176 120.575 738.397 118.87 733.875 118.87V122.87C737.265 122.87 739.907 124.089 741.978 126.545L745.036 123.967ZM733.875 118.87C729.353 118.87 725.574 120.575 722.714 123.967L725.772 126.545C727.843 124.089 730.485 122.87 733.875 122.87V118.87ZM769.568 140.22V138.22H767.568V140.22H769.568ZM769.568 154.41H767.568V156.41H769.568V154.41ZM789.434 152.862L790.489 154.561L790.51 154.548L790.53 154.535L789.434 152.862ZM769.568 135.06H767.568V137.06H769.568V135.06ZM769.568 122.59V120.59H767.568V122.59H769.568ZM762.258 160H760.258V162H762.258V160ZM762.258 117V115H760.258V117H762.258ZM793.562 119.494L792.559 121.224L792.579 121.236L792.6 121.247L793.562 119.494ZM795.884 133.34L797.379 134.669L797.391 134.655L797.403 134.642L795.884 133.34ZM791.756 136.264L792.261 138.199L792.289 138.192L792.316 138.184L791.756 136.264ZM789.778 136.78L789.274 134.845L787.778 135.235V136.78H789.778ZM789.778 137.21H787.778V138.85L789.386 139.171L789.778 137.21ZM790.81 137.468L790.261 139.391L790.409 139.433L790.562 139.453L790.81 137.468ZM793.218 138.242L793.961 136.385L793.961 136.385L793.218 138.242ZM796.228 139.962L794.979 141.524L794.979 141.524L796.228 139.962ZM798.55 143.058L796.762 143.952L796.784 143.998L796.809 144.042L798.55 143.058ZM795.024 157.076L793.959 155.384L793.959 155.384L795.024 157.076ZM782.468 138.22H769.568V142.22H782.468V138.22ZM767.568 140.22V154.41H771.568V140.22H767.568ZM769.568 156.41H782.468V152.41H769.568V156.41ZM782.468 156.41C785.642 156.41 788.385 155.867 790.489 154.561L788.38 151.163C787.158 151.921 785.258 152.41 782.468 152.41V156.41ZM790.53 154.535C792.96 152.943 793.928 150.242 793.928 147.1H789.928C789.928 149.462 789.235 150.602 788.338 151.189L790.53 154.535ZM793.928 147.1C793.928 144.295 792.93 141.915 790.74 140.323C788.668 138.816 785.805 138.22 782.468 138.22V142.22C785.439 142.22 787.305 142.771 788.387 143.557C789.351 144.258 789.928 145.318 789.928 147.1H793.928ZM769.568 137.06H781.178V133.06H769.568V137.06ZM781.178 137.06C784.497 137.06 787.338 136.506 789.4 135.1C791.599 133.601 792.638 131.324 792.638 128.61H788.638C788.638 130.196 788.101 131.144 787.147 131.795C786.055 132.539 784.167 133.06 781.178 133.06V137.06ZM792.638 128.61C792.638 126.061 791.688 123.893 789.635 122.457C787.713 121.111 785.077 120.59 782.038 120.59V124.59C784.733 124.59 786.397 125.073 787.341 125.733C788.155 126.303 788.638 127.145 788.638 128.61H792.638ZM782.038 120.59H769.568V124.59H782.038V120.59ZM767.568 122.59V135.06H771.568V122.59H767.568ZM764.258 160V117H760.258V160H764.258ZM762.258 119H782.468V115H762.258V119ZM782.468 119C786.769 119 790.089 119.791 792.559 121.224L794.566 117.764C791.303 115.871 787.226 115 782.468 115V119ZM792.6 121.247C793.773 121.891 794.58 122.691 795.107 123.632C795.639 124.582 795.948 125.785 795.948 127.32H799.948C799.948 125.243 799.527 123.336 798.597 121.677C797.662 120.009 796.276 118.702 794.525 117.741L792.6 121.247ZM795.948 127.32C795.948 129.321 795.388 130.846 794.366 132.038L797.403 134.642C799.133 132.624 799.948 130.135 799.948 127.32H795.948ZM794.39 132.011C793.158 133.397 792.085 134.085 791.196 134.344L792.316 138.184C794.18 137.64 795.859 136.379 797.379 134.669L794.39 132.011ZM791.252 134.329L789.274 134.845L790.283 138.715L792.261 138.199L791.252 134.329ZM787.778 136.78V137.21H791.778V136.78H787.778ZM789.386 139.171C789.603 139.215 789.892 139.286 790.261 139.391L791.36 135.545C790.927 135.421 790.527 135.32 790.171 135.249L789.386 139.171ZM790.562 139.453C790.731 139.474 791.308 139.632 792.476 140.099L793.961 136.385C792.835 135.935 791.807 135.577 791.058 135.483L790.562 139.453ZM792.476 140.099C793.462 140.493 794.29 140.972 794.979 141.524L797.478 138.4C796.447 137.576 795.268 136.908 793.961 136.385L792.476 140.099ZM794.979 141.524C795.542 141.974 796.155 142.739 796.762 143.952L800.339 142.164C799.57 140.625 798.635 139.326 797.478 138.4L794.979 141.524ZM796.809 144.042C797.369 145.032 797.668 146.178 797.668 147.53H801.668C801.668 145.557 801.223 143.721 800.292 142.074L796.809 144.042ZM797.668 147.53C797.668 151.422 796.346 153.88 793.959 155.384L796.09 158.768C799.894 156.373 801.668 152.467 801.668 147.53H797.668ZM793.959 155.384C791.278 157.071 787.642 158 782.898 158V162C788.131 162 792.579 160.979 796.09 158.768L793.959 155.384ZM782.898 158H762.258V162H782.898V158Z" fill="#FEFF8B"/>
</g>
<defs>
<filter id="filter0_d_1410_689" x="0.881348" y="0.799805" width="815.787" height="189.1" filterUnits="userSpaceOnUse" color-interpolation-filters="sRGB">
<feFlood flood-opacity="0" result="BackgroundImageFix"/>
<feColorMatrix in="SourceAlpha" type="matrix" values="0 0 0 0 0 0 0 0 0 0 0 0 0 0 0 0 0 0 127 0" result="hardAlpha"/>
<feOffset/>
<feGaussianBlur stdDeviation="8.5"/>
<feComposite in2="hardAlpha" operator="out"/>
<feColorMatrix type="matrix" values="0 0 0 0 0.203922 0 0 0 0 0.34902 0 0 0 0 0.85098 0 0 0 0.5 0"/>
<feBlend mode="normal" in2="BackgroundImageFix" result="effect1_dropShadow_1410_689"/>
<feBlend mode="normal" in="SourceGraphic" in2="effect1_dropShadow_1410_689" result="shape"/>
</filter>
</defs>
</svg>
